<?xml version="1.0" encoding="utf-8"?>
<!-- Generator: Adobe Illustrator 16.0.0, SVG Export Plug-In . SVG Version: 6.00 Build 0)  -->
<!DOCTYPE svg PUBLIC "-//W3C//DTD SVG 1.1//EN" "http://www.w3.org/Graphics/SVG/1.1/DTD/svg11.dtd">
<svg version="1.1" id="Layer_1" xmlns="http://www.w3.org/2000/svg" xmlns:xlink="http://www.w3.org/1999/xlink" x="0px" y="0px"
	 width="535.75px" height="568.482px" viewBox="0 0 535.75 568.482" style="enable-background:new 0 0 535.75 568.482;"
	 xml:space="preserve">
<style type="text/css">
<![CDATA[
	.st0{filter:url(#Adobe_OpacityMaskFilter);}
	.st1{mask:url(#SVGID_1_);}
	.st2{fill:#FFFFFF;}
	.st3{fill:#FFFFFF;stroke:#010101;stroke-miterlimit:10;}
]]>
</style>
<defs>
        
        <style>
            
        .st1,
        .st2,
        .st3

        {
    fill: #363636;
    stroke:grey;
    stroke-miterlimit:10;
        stroke-dasharray: 1000;
        stroke-dashoffset: 30;
        -webkit-animation: dash 1s linear forwards;
        -o-animation: dash 1s linear forwards;
        -moz-animation: dash 1s linear forwards;
        animation: dash 1s linear forwards;
   
        }
    @-webkit-keyframes dash {
        
        from {
                stroke-dashoffset: 1000;
    }
            to {
                stroke-dashoffset: 30;
        }
    }
            
        </style>
    </defs>
<g>
	<path class="st3" d="M524.083,57.583v5.667L360.75,131.917c0,0,1-7,0-7.333s1,0.333,1,0.333L524.083,57.583z"/>
	<path class="st3" d="M322.084,126.917c0,0-1.667,5.667,0,7.667L186.085,112.25c0,0-0.332-4.668-5-8.334L322.084,126.917z"/>
	<path class="st3" d="M20.419,85.25l119,18.666c0,0,0.666-4.333,5-5.666l-124-19.333C20.419,78.917,22.085,83.917,20.419,85.25z"/>
	<g>
		<path class="st3" d="M13.083,103.916l125.667,21.333v20.667c0,0,1.333,9,11,11.333l29,5.667c0,0,8,0.333,9-9.667v-19.833
			l143,24.833l-7.667,332.668c0,0-13.666-3.667-7.666,8l-280.334-82c0,0,1.334-10-7.666-10L13.083,103.916z"/>
		<path class="st3" d="M354.416,156.917L527.083,81.25l-18.666,288c0,0-4.667,4.333-4,11L351.084,493.917c0,0-0.333-8.999-5-5.333
			L354.416,156.917z"/>
		<path class="st3" d="M30.751,57.917l189.667-52h10.001h2L505.418,37.25c0,0,1,3,5,3l-163.667,65.333c0,0-10.333-3.667-14.333,0
			L32.751,60.25C32.751,60.25,34.085,58.583,30.751,57.917z"/>
	</g>
	<path class="st3" d="M358.752,347.584l32.333-20c0,0,4.667-4.334,5.667,2.333l-1.334,40.667c0,0-1.334,6.666-4,8.666l-35,23.667
		c0,0-4.332-0.334-3.666-4.667l1.333-41C354.085,357.25,354.539,350.191,358.752,347.584z"/>
	<path class="st3" d="M481.086,272.917l26.333-17c0,0,4.666-3,5,4.666l-2,35c0,0-0.333,3-3.333,5.834l-26,18.834
		c0,0-4.333,3.666-4.333-4.334l1.333-33.668C478.086,282.25,478.581,274.535,481.086,272.917z"/>
	<path class="st3" d="M348.754,509.583c0,0-2.001-5-1.334-7.333s3.664-8.332,3.664-8.332L504.417,380.25c0,0,3.997,2.332,0,10.332
		l-1.33,2.667L348.754,509.583z"/>
	<path class="st3" d="M323.083,490.917c0,0,3.671,6.331,5.671,6.665s14.327,3.337,17.33-8.998l7.924-321.004
		c0,0-5.92,3.669-7.254,4.336c0,0-16.326,0.342-16.165-6.663L323.083,490.917z"/>
	<path class="st3" d="M315.417,498.917c0,0,5.083,6.75,0,14.082C314.989,513.616,33,429.75,33,429.75v-7.5
		c0,0,0.167-4.414,2.083-5.332L315.417,498.917z"/>
	<path class="st3" d="M16,406c0,0,8.583,7.086,11.417,0.918L13.466,112c0,0-0.466,4.001-10.966,0L16,406z"/>
	<path class="st3" d="M9.5,92.999c0,0,4.271,1.54,3.583,10.917l125.667,21.333v-11.25L9.5,92.999z"/>
	<path class="st3" d="M13.083,87.249c0,0-0.083,5.75-3.583,5.75l129.25,21l0.669-10.083l-119-18.666
		C20.419,85.25,18.667,88.999,13.083,87.249z"/>
	<path class="st3" d="M335,145.999l-147.75-24l-1.165-9.749l135.999,22.333c0,0,2.916,5.416,8.666,3.916
		C330.75,138.499,330.5,144.499,335,145.999z"/>
	<path class="st3" d="M352,145.999c0,0,2.872-1.676,2.416,10.917L527.083,81.25c0,0-1.929-9.579,5.821-12.142L352,145.999z"/>
	<path class="st3" d="M360.75,131.917c0,0-0.75,5.082-5,5.332c0,0-0.428,8.5-3.089,8.75l177.804-75.854c0,0-3.299-2.146-3.382-4.396
		c0,0-3-0.248-3-2.499L360.75,131.917z"/>
	<path class="st3" d="M346.751,105.583l2.163,1.333h10.667l-0.667,12.333c0,0,0.836,5,1.836,5.333s163.333-67,163.333-67l3-4.833
		V42.083h-2.001l-2.5-1.333h-6.5l-6.332-0.532L346.751,105.583z"/>
	<path class="st3" d="M332.418,105.583v2.333l-6.001,1.167c0,0-2.333,5,0,7.333c0,0,2.667,6.834-4.333,10.5l-140.999-23.001
		c0,0-12.164-4.833-36.666-5.666l-124-19.333c0,0-8.17-9.167-1.503-16.833l4.5-1.833h2.833l2.334-1l4.168,1L332.418,105.583z"/>
	<path class="st3" d="M14.958,55.75l3.959,1.668h2.834c0,0,1.5,0,2,0s1.666,0,2.166,0s2.5,0,2.5,0l2.334,0.499l189.667-52V4.251
		V1.917h-2.333h-1.834L14.958,55.75z"/>
	<polygon class="st3" points="226.75,1.917 230,1.917 232.419,5.917 505.418,37.25 509,37.25 513.5,37.25 515.25,34.999 	"/>
	<path class="st3" d="M526.547,89.518c0,0,6.512,1.769,6.357,0L514.5,368c0,0-3.666,7.252-6.083,1.251L526.547,89.518z"/>
	<path class="st3" d="M0.5,60.999v21h5h1.25L8,80.749c0,0,3.917,3.25,5.083,6.5c1.167,3.25,11.301-0.136,7.336-8.332
		c0,0-13.254-16.666,8.164-19.667l4.168,1l-2-2.333l-11.834-0.499l-3.959-1.668L2.5,59.25L0.5,60.999z"/>
	<path class="st3" d="M1.7,91.777l7.8,1.222c0,0,3.107,0.849,3.583,10.917C13.56,113.984,13.25,116.502,2.5,112L1.7,91.777z"/>
	<path class="st3" d="M0.5,81.999v9.417c0,0,7.165,2.282,9,1.583s6-6-1.5-12.25C8,80.749,4.75,82.499,0.5,81.999z"/>
	<path class="st3" d="M332.418,107.917c0,0-0.166-7.999,14.333-2.333l2.163,1.333h10.667c0,0-2.331,16.251,1.169,17.667
		c0,0,3,12.916-5,12.666l-3.089-4l-6.577,4.003l-7.539-3.503c0,0-3.795,1-7.795,4.75c0,0-12.999-1.082-8.666-11.582
		c0,0,7-3.083,4.333-10.5S327.586,107.584,332.418,107.917z"/>
	<path class="st3" d="M335,145.999l11.084,1.75l6.577-1.75l3.089-8.75l-3.089-4l-6.577,4.003l-7.539-3.503
		c0,0-7.874,3.312-7.795,4.75C330.75,138.499,331.11,145.385,335,145.999z"/>
	<path class="st3" d="M535.25,37.25v21.749h-4.785c0,0-1.882,7.155-3.382,6.75c0,0-4.417,0.419-3-8.166l3-4.833V42.083h-2.001
		l-2.5-1.333c0,0-11.65-0.315-12.832-0.532c0,0-3.914-0.968-4.332-2.969h8.082l1.75-2.251L535.25,37.25z"/>
	<path class="st3" d="M534.75,68.333c0,0-7.084,2.416-7.667-2.584c0,0,3.667-8.75,7.667-6.75V68.333z"/>
	<path class="st3" d="M534.75,69.108c0,0-8.418-1.191-7.667,12.142l-0.497,7.671l-0.039,0.597c0,0,5.321,1.71,6.346,0.179
		L534.75,69.108z"/>
	<polygon class="st3" points="220.088,1.917 221.005,1 222.255,0.5 223.171,0.5 223.921,0.5 225.421,1.209 226.75,1.917 230,1.917 
		232.419,5.917 220.418,5.917 220.418,2.5 	"/>
	<path class="st3" d="M187.25,121.999v3.835l-5.567-0.312c0,0,1.072-12.688-4.094-15.188c-5.168-2.5-27.334-4.167-27.334-4.167
		s-5.084-0.834-4.834,5.333l-0.008,7.75h-6.663l0.558-13.667c0,0-0.059-5.917,5.111-7.333c0,0,22.718,0.609,35.777,5.347
		C180.196,103.597,187.162,105.748,187.25,121.999z"/>
	<path class="st3" d="M187.25,127.25h-5.745l-0.42,25.638c0,0-1.823,2.551-4.585,2.11c-17.25-2.75-29-1-30.912-11.915V120.5h-6.838
		v25.416c0,0,1.364,9.45,11.854,11.5l28.146,5.5c0,0,8.245-0.002,9-9.667L187.25,127.25z"/>
	<path class="st3" d="M159.247,120.65l7.878,0.724l2.75,2.75v2.25v6.125l5.625,6.125c0,0,2.625,6.5-1.875,7.375l-19.5-2.25
		c0,0-7-2.875-2.5-9.75l4.375-4.875l0.625-6L159.247,120.65z"/>
	<polygon class="st3" points="156.625,116.749 170.25,117.374 170.25,112.25 157.226,112.042 	"/>
	<ellipse class="st3" cx="184.25" cy="132.354" rx="1.25" ry="2.23"/>
	<ellipse class="st3" cx="184.25" cy="121.312" rx="1.25" ry="2.688"/>
	<ellipse class="st3" cx="182.335" cy="109.625" rx="1.25" ry="2.625"/>
	<ellipse class="st3" cx="163" cy="103.916" rx="1.25" ry="2.625"/>
	<ellipse class="st3" cx="143.75" cy="102.958" rx="1.25" ry="2.625"/>
	<ellipse class="st3" cx="142" cy="114.708" rx="1.25" ry="2.625"/>
	<ellipse class="st3" cx="142.5" cy="125.249" rx="1.25" ry="2.625"/>
	<ellipse class="st3" cx="145" cy="151.124" rx="1.25" ry="2.625"/>
	<ellipse class="st3" cx="163" cy="156.375" rx="1.25" ry="2.625"/>
	<ellipse class="st3" cx="182.335" cy="157.374" rx="1.25" ry="2.625"/>
	<polygon class="st3" points="169.366,117.333 169.366,123.616 167.125,121.374 159.247,120.65 157.587,122.216 157.587,116.793 	
		"/>
	<polyline class="st3" points="181.085,125.834 169.875,124.124 169.366,123.616 169.366,117.333 170.25,117.374 170.25,112.25 
		157.226,112.042 156.625,116.749 157.587,116.793 157.587,122.216 145.588,120.5 	"/>
	<path class="st3" d="M16,406l1.083,19.917L33,429.75c0,0-0.833-12.289,2.083-12.832c0,0,1.25-9.707-7.666-10
		C27.417,406.917,25.25,413.25,16,406z"/>
	<path class="st3" d="M315.417,513l21.083,6l12.254-9.417c0,0-4.211-6.247,2.33-15.665c0,0-0.041-8.748-5-5.333
		c0,0-2.08,10.817-12.082,9.554s-10.919-7.221-10.919-7.221s-13.499-3.957-7.666,8C315.417,498.917,320.709,505.625,315.417,513z"/>
	<path class="st3" d="M503.087,393.25l10.67-7.778L514.5,368c0,0-3.688,7.141-6.083,1.251c0,0-4.831,4.359-4,11
		C504.417,380.25,509.242,383.619,503.087,393.25z"/>
	<g>
		<path class="st3" d="M65.125,469.75c0.646,12.279,12.747,27.375,24.153,27.375c11.408,0,23.722-9.329,23.722-21.625
			c0-12.295-12.329-27.77-23.721-28.375C76.75,446.458,64.226,452.625,65.125,469.75z"/>
		
			<ellipse transform="matrix(0.9634 -0.2681 0.2681 0.9634 -123.958 39.8624)" class="st3" cx="84" cy="473.875" rx="12" ry="15.125"/>
		<polygon class="st3" points="80.875,479.75 86.5,480.625 80.875,449.375 77.5,450.375 64.226,446.458 		"/>
		<polygon class="st3" points="37.246,431.012 37.246,438.5 77.5,450.375 87.286,445.878 		"/>
	</g>
	<defs>
		<filter id="Adobe_OpacityMaskFilter" filterUnits="userSpaceOnUse" x="440.464" y="402.708" width="50.237" height="51.972">
			
				<feColorMatrix  type="matrix" values="-1 0 0 0 1  0 -1 0 0 1  0 0 -1 0 1  0 0 0 1 0" color-interpolation-filters="sRGB" result="source"/>
			<feFlood  style="flood-color:white;flood-opacity:1" result="back"/>
			<feBlend  in="source" in2="back" mode="normal"/>
		</filter>
	</defs>
	<mask maskUnits="userSpaceOnUse" x="440.464" y="402.708" width="50.237" height="51.972" id="SVGID_1_">
		<g class="st0">
			<polygon class="st2" points="439.281,441.345 487.593,404.928 470.084,391.583 428.751,402.917 			"/>
		</g>
	</mask>
	<g class="st1">
		<path class="st3" d="M442.326,426.805c0.645,12.279,12.747,27.375,24.154,27.375c11.406,0,23.721-9.329,23.721-21.625
			c0-12.295-8.504-28.423-23.721-28.375C453.934,404.219,441.426,409.68,442.326,426.805z"/>
		
			<ellipse transform="matrix(0.9634 -0.2681 0.2681 0.9634 -98.6398 139.4076)" class="st3" cx="461.201" cy="430.93" rx="12" ry="15.125"/>
		<polygon class="st3" points="458.076,436.805 463.701,437.68 458.076,406.43 454.701,407.43 441.426,403.514 		"/>
	</g>
	<g>
		<path class="st3" d="M290.561,538.25c0.646,12.279,8.064,27.25,27.564,29.625c11.323,1.379,27.062-10.688,26.125-24.062
			c-0.859-12.265-8.875-27.5-26.677-28.782C305.059,514.128,289.661,521.125,290.561,538.25z"/>
		
			<ellipse transform="matrix(0.9634 -0.2681 0.2681 0.9634 -133.8057 103.547)" class="st3" cx="312.294" cy="541.78" rx="12" ry="15.125"/>
		<polygon class="st3" points="309.169,547.655 314.794,548.53 309.169,517.28 305.794,518.28 292.52,514.364 		"/>
		<polygon class="st3" points="265.54,498.917 265.54,506.405 305.794,518.28 315.58,513.784 		"/>
	</g>
	<path class="st3" d="M359.375,356L390,337c0,0,3.125-2.5,3,2l-0.75,30.375c0,0-0.375,4-3.25,5.375s-29.625,20-29.625,20
		s-2.875,2.25-2.75-3.25s0.875-32,0.875-32S358.068,356.81,359.375,356z"/>
	<polygon class="st3" points="388.625,351.875 361.25,369.125 361.232,354.847 388.625,337.853 	"/>
	<polygon class="st3" points="360.125,361.375 360.125,387.375 360.125,389.5 357.875,389.5 358.5,361.375 	"/>
	<polygon class="st3" points="387.5,364.559 361.232,382.733 361.232,390.875 387.5,374.125 	"/>
	<polygon class="st3" points="388.25,368 388.25,372.083 390.667,370.042 391.833,338.417 389.75,338.417 389.583,367.167 	"/>
	<path class="st3" d="M506.25,264.75l-21.75,14c0,0-2.75,2.5-2.5,6L480.25,313c0,0-1.5,2.75,2.75,0l23.25-15.25
		c0,0,2.334-2.25,2.167-6l1.583-24C510,267.75,510.443,262.05,506.25,264.75z"/>
	<polygon class="st3" points="484,292.75 508.417,276.75 508.417,264.041 484.5,278.75 	"/>
	<polygon class="st3" points="484,304 505,289.123 505,296.561 484,311.5 	"/>
	<path class="st3" d="M335,145.999c0,0-6.557,2.086-4.25,12.25l-143.5-24.925v-11.325L335,145.999z"/>
	<path class="st3" d="M330.75,158.249c0,0-1.5-11,4.25-12.25l11.084,1.75l6.577-1.75c0,0,1.952,3.073,1.755,10.917l-0.408,10.664
		l-7.254,4.336C346.754,171.916,328.5,174.999,330.75,158.249z"/>
	<g>
		<ellipse class="st3" cx="163.062" cy="130.687" rx="4.812" ry="6.688"/>
		<ellipse class="st3" cx="154.75" cy="137.874" rx="1.875" ry="2.25"/>
		<ellipse class="st3" cx="172.617" cy="140.874" rx="1.742" ry="2.25"/>
	</g>
</g>
</svg>
