<?xml version="1.0" encoding="utf-8"?>
<!-- Generator: Adobe Illustrator 16.0.0, SVG Export Plug-In . SVG Version: 6.00 Build 0)  -->
<!DOCTYPE svg PUBLIC "-//W3C//DTD SVG 1.1//EN" "http://www.w3.org/Graphics/SVG/1.1/DTD/svg11.dtd">
<svg version="1.1" id="Layer_1" xmlns="http://www.w3.org/2000/svg" xmlns:xlink="http://www.w3.org/1999/xlink" x="0px" y="0px"
	 width="1170.447px" height="302.485px" viewBox="0 0 1170.447 302.485" style="enable-background:new 0 0 1170.447 302.485;"
	 xml:space="preserve">
<style type="text/css">
<![CDATA[
	.st0{fill:url(#SVGID_38_);stroke:#FFFFFF;stroke-width:0.5669;stroke-miterlimit:10;}
	.st1{fill:url(#SVGID_39_);stroke:#FFFFFF;stroke-width:0.5669;stroke-miterlimit:10;}
	.st2{fill:url(#SVGID_1_);}
	.st3{fill:url(#SVGID_2_);}
	.st4{fill:url(#SVGID_3_);}
	.st5{fill:url(#SVGID_4_);}
	.st6{fill:url(#SVGID_5_);}
	.st7{fill:url(#SVGID_6_);}
	.st8{fill:url(#SVGID_7_);}
	.st9{fill:url(#SVGID_8_);}
	.st10{fill:url(#SVGID_9_);}
	.st11{fill:#FAFDFA;}
	.st12{fill:url(#SVGID_32_);stroke:#0D130D;stroke-width:2.8347;stroke-miterlimit:10;}
	.st13{fill:url(#SVGID_33_);stroke:#0D130D;stroke-width:2.8347;stroke-miterlimit:10;}
	.st14{fill:url(#SVGID_10_);}
	.st15{fill:url(#SVGID_11_);}
	.st16{fill:url(#SVGID_12_);}
	.st17{fill:url(#SVGID_13_);}
	.st18{fill:url(#SVGID_14_);}
	.st19{fill:url(#SVGID_15_);}
	.st20{fill:url(#SVGID_16_);}
	.st21{fill:url(#SVGID_17_);}
	.st22{fill:url(#SVGID_18_);}
	.st23{fill:url(#SVGID_19_);}
	.st24{fill:url(#SVGID_20_);}
	.st25{fill:url(#SVGID_21_);}
	.st26{fill:url(#SVGID_22_);}
	.st27{fill:url(#SVGID_23_);}
	.st28{fill:url(#SVGID_24_);}
	.st29{fill:url(#SVGID_25_);}
	.st30{fill:url(#SVGID_26_);}
	.st31{fill:url(#SVGID_27_);}
	.st32{fill:url(#SVGID_28_);}
	.st33{fill:url(#SVGID_29_);}
	.st34{fill:url(#SVGID_30_);}
	.st35{fill:url(#SVGID_31_);}
	.st36{fill:url(#SVGID_34_);}
	.st37{fill:url(#SVGID_35_);}
	.st38{fill:url(#SVGID_36_);}
	.st39{fill:url(#SVGID_37_);}
	.st40{fill:#0D130D;}
]]>
</style>
<g>
	<g>
		<linearGradient id="SVGID_1_" gradientUnits="userSpaceOnUse" x1="1041.2656" y1="68.9888" x2="1038.2567" y2="342.799">
			<stop  offset="0.0102" style="stop-color:#ED2024"/>
			<stop  offset="1" style="stop-color:#811517"/>
		</linearGradient>
		<path class="st2" d="M992.465,204.627c-3.105,0-8.224-3.011-11.664-5.59c-6.424-5.622-9.447-10.081-9.26-13.646
			c0-0.918,0.447-1.98,0.843-2.917c0.083-0.197,0.165-0.39,0.239-0.577c1.906-4.809,6.453-12.863,13.528-23.963
			c-2.521,2.741-5.112,5.524-7.731,8.304c-11.984,12.527-38.828,38.39-45.32,38.39c-4.004,0-9.861-4.312-13.891-8.586
			c-4.321-4.584-6.791-9.203-6.605-12.354c0-1.165,0.496-2.552,0.869-3.493c4.541-11.201,16.412-28.089,30.158-47.644
			c5.658-8.05,11.511-16.375,17.324-24.971c4.162-5.914,6.548-11.283,6.548-14.734c0.206-1.652-0.194-2.584-1.335-3.152
			l-1.078-0.538h1.205c0.262-0.041,0.719-0.11,1.373-0.11c1.996,0,5.145,0.621,8.809,3.58c4.002,2.736,11.387,10.723,11.166,16.189
			c0.001,2.274-6.582,11.582-9.412,15.478c-5.045,6.54-12.755,16.625-21.493,28.724c-10.985,15.293-19.747,30.461-19.946,34.531
			c0,0.516,0.116,0.767,0.777,0.767c3.743,0,36.742-27.438,65.361-55.499c3.656-5.292,7.371-10.577,11.006-15.665l34.443-47.462
			c-12.737,3.217-20.305,7.311-22.307,9.313c-0.469,0.468-0.666,0.98-0.603,1.565c0.261,2.431,4.94,5.437,6.938,6.721
			c0.585,0.29,0.561,0.703,0.522,0.866c-0.095,0.404-0.579,0.72-1.103,0.72c-9.437-0.84-16.382-6.071-16.874-8.527
			c-3.337-10.218,8.482-20.405,11.667-21.601c6.803-2.976,18.629-5.333,34.193-6.814c2.039-3.262,3.98-6.327,5.752-9.125
			c1.898-2.999,3.603-5.691,5.026-7.989c5.186-10.126,6.259-15.612,3.358-17.228h-0.212l-0.007-0.285c0-0.219,0-0.363,1.443-0.363
			c1.802,0,5.344,0.405,8.812,3.119c8.12,6.038,12.257,14.497,12.023,19.388c0.001,0.479-0.231,0.942-0.456,1.389l-6.933,9.592
			c25.709,0.088,68.873,6.271,78.73,11.308c0.299,0.096,0.382,0.289,0.393,0.432c0.024,0.357-0.416,0.617-0.607,0.712l-0.07,0.035
			l-0.079-0.006c-6.59-0.541-16.077-0.826-27.436-0.826c-9.783,0-20.74,0.213-31.688,0.616l-1.993,0.09
			c-5.578,0.246-15.941,0.703-27.439,1.811l-38.225,52.879c-0.141,0.227-1.083,1.537-2.645,3.709
			c-28.023,38.972-42.293,61.295-42.414,66.351c0.001,0.511,0.121,0.774,0.783,0.774c3.621,0,38.221-27.929,67.251-56.52
			c0.578-0.577,1.129-0.698,1.489-0.698c0.553,0,1.049,0.295,1.293,0.771c0.275,0.535,0.191,1.202-0.225,1.784
			c-4.467,5.634-14.414,17.145-28.963,32.586C1025.799,178.764,998.962,204.627,992.465,204.627z"/>
		<path class="st11" d="M1076.176,17.225c1.756,0,5.248,0.408,8.639,3.059c8.299,6.171,12.127,14.683,11.914,19.151
			c0,0.425-0.213,0.852-0.426,1.275l-7.232,10.002c26.17,0,69.576,6.384,79.154,11.277c0.641,0.213-0.213,0.638-0.213,0.638
			c-6.848-0.562-16.48-0.827-27.458-0.827c-9.831,0-20.74,0.212-31.698,0.616c-4.469,0.211-16.383,0.638-29.576,1.914
			l-38.299,52.983c-1.066,1.703-44.9,61.283-45.113,70.219c0,0.641,0.213,1.064,1.066,1.064c4.043,0,39.578-29.151,67.449-56.602
			c0.438-0.436,0.893-0.617,1.291-0.617c0.961,0,1.591,1.053,0.838,2.107c-4.893,6.171-15.105,17.875-28.939,32.557
			c-14.041,14.683-39.15,38.301-45.107,38.301c-2.982,0-8.086-2.979-11.494-5.533c-5.104-4.467-9.359-9.362-9.146-13.404
			c0-1.064,0.635-2.342,1.062-3.403c2.209-5.575,7.91-15.271,15.289-26.698c-3.062,3.355-6.385,6.942-9.963,10.738
			c-14.047,14.683-39.156,38.301-45.113,38.301c-6.811,0-20.639-13.405-20.213-20.64c0-1.063,0.428-2.341,0.85-3.405
			c6.383-15.746,27.449-42.982,47.453-72.561c4.043-5.744,6.598-11.277,6.598-14.893c0.213-1.704-0.213-2.769-1.492-3.406
			c0.068,0,0.557-0.111,1.373-0.111c1.717,0,4.88,0.488,8.631,3.517c4.043,2.765,11.275,10.637,11.061,15.957
			c0,1.703-4.256,8.298-9.359,15.322c-5.744,7.447-13.193,17.234-21.492,28.725c-10.854,15.108-19.791,30.428-20,34.684
			c0,0.641,0.209,1.064,1.061,1.064c3.996,0,37.873-28.434,65.559-55.58c3.627-5.239,7.342-10.528,11.039-15.703l34.9-48.09
			c-12.982,3.191-21.066,7.447-23.195,9.576c-2.768,2.765,3.402,6.81,6.385,8.725c0.848,0.424,0.213,1.064-0.428,1.064
			c-9.578-0.854-16.17-6.171-16.596-8.299c-3.195-9.789,8.084-20.002,11.488-21.279c6.809-2.979,18.516-5.32,34.26-6.811
			c4.256-6.808,8.084-12.766,10.854-17.234c4.469-8.725,6.809-15.746,3.189-17.661C1074.957,17.306,1075.395,17.225,1076.176,17.225
			 M1076.176,16.658c-1.135,0-1.727,0.029-1.727,0.646v0.567l0.426,0.001c2.617,1.558,1.457,7.069-3.546,16.836
			c-1.4,2.256-3.069,4.893-5.003,7.946c-1.75,2.765-3.666,5.791-5.679,9.009c-15.524,1.484-27.331,3.844-34.154,6.829
			c-3.202,1.2-15.179,11.533-11.81,21.945c0.564,2.542,7.598,7.87,17.095,8.717l0.024,0.002h0.025c0.66,0,1.252-0.403,1.379-0.938
			c0.041-0.177,0.114-0.778-0.669-1.185c-1.978-1.27-6.541-4.21-6.786-6.497c-0.054-0.495,0.117-0.931,0.521-1.334
			c1.865-1.866,9.269-5.887,21.416-9.044l-33.981,46.824c-3.629,5.079-7.333,10.349-11.016,15.669
			c-28.029,27.479-61.511,55.38-65.123,55.38c-0.455,0-0.494-0.082-0.494-0.498c0.197-3.996,8.936-19.098,19.894-34.353
			c8.735-12.094,16.443-22.177,21.481-28.709c3.546-4.88,9.478-13.385,9.478-15.668c0.227-5.625-7.128-13.566-11.309-16.425
			c-3.692-2.983-6.908-3.615-8.95-3.615c-0.676,0-1.148,0.072-1.35,0.103l-0.067,0.01h-2.408l2.198,1.072
			c1.028,0.513,1.371,1.332,1.184,2.828l-0.005,0.035v0.036c0,3.394-2.366,8.704-6.493,14.566
			c-5.818,8.603-11.67,16.927-17.328,24.977c-13.756,19.568-25.636,36.469-30.188,47.698c-0.384,0.966-0.891,2.388-0.891,3.618
			c-0.189,3.194,2.309,7.892,6.684,12.532c4.07,4.318,10.008,8.675,14.096,8.675c6.584,0,33.514-25.922,45.523-38.476
			c1.893-2.009,3.771-4.019,5.617-6.013c-6.134,9.761-10.123,16.936-11.881,21.372c-0.073,0.182-0.154,0.374-0.236,0.57
			c-0.406,0.961-0.865,2.052-0.865,3.042c-0.191,3.628,2.863,8.162,9.34,13.831c3.508,2.631,8.693,5.673,11.867,5.673
			c6.589,0,33.512-25.922,45.518-38.476c14.559-15.451,24.512-26.969,28.973-32.597c0.496-0.692,0.589-1.47,0.264-2.101
			c-0.293-0.57-0.885-0.925-1.545-0.925c-0.414,0-1.043,0.135-1.691,0.782c-28.985,28.547-63.47,56.436-67.049,56.436
			c-0.459,0-0.499-0.082-0.499-0.498c0.119-4.983,14.371-27.253,42.36-66.178c1.74-2.42,2.516-3.5,2.666-3.74l38.127-52.745
			c11.439-1.099,21.743-1.553,27.297-1.798c0.773-0.034,1.443-0.063,1.998-0.089c10.938-0.403,21.891-0.616,31.671-0.616
			c11.351,0,20.83,0.286,27.412,0.825l0.157,0.013l0.143-0.07c0.3-0.149,0.799-0.477,0.763-0.986
			c-0.013-0.181-0.106-0.506-0.579-0.681c-9.881-5.012-52.502-11.145-78.272-11.318l6.585-9.106l0.027-0.037l0.02-0.041
			c0.229-0.454,0.487-0.97,0.487-1.53c0.235-4.938-3.939-13.506-12.144-19.606C1081.627,17.071,1078.014,16.658,1076.176,16.658
			L1076.176,16.658z"/>
	</g>
	<g>
		<path class="st40" d="M1076.176,17.225c1.756,0,5.248,0.408,8.639,3.059c8.299,6.171,12.127,14.683,11.914,19.151
			c0,0.425-0.213,0.852-0.426,1.275l-7.232,10.002c26.17,0,69.576,6.384,79.154,11.277c0.641,0.213-0.213,0.638-0.213,0.638
			c-6.848-0.562-16.48-0.827-27.458-0.827c-9.83,0-20.741,0.212-31.698,0.616c-4.469,0.211-16.383,0.638-29.576,1.914
			l-38.299,52.983c-1.066,1.703-44.9,61.283-45.113,70.219c0,0.641,0.213,1.064,1.066,1.064c4.043,0,39.578-29.151,67.449-56.602
			c0.438-0.436,0.893-0.617,1.291-0.617c0.961,0,1.591,1.053,0.838,2.107c-4.893,6.171-15.105,17.875-28.939,32.557
			c-14.041,14.683-39.15,38.301-45.107,38.301c-2.982,0-8.086-2.979-11.494-5.533c-5.104-4.467-9.359-9.362-9.146-13.404
			c0-1.064,0.635-2.342,1.062-3.403c2.209-5.575,7.91-15.271,15.289-26.698c-3.062,3.355-6.385,6.942-9.963,10.738
			c-14.047,14.683-39.156,38.301-45.113,38.301c-6.811,0-20.639-13.405-20.213-20.64c0-1.063,0.428-2.341,0.85-3.405
			c6.383-15.746,27.449-42.982,47.453-72.561c4.043-5.744,6.598-11.277,6.598-14.893c0.213-1.704-0.213-2.769-1.492-3.406
			c0.068,0,0.557-0.111,1.373-0.111c1.717,0,4.88,0.488,8.631,3.517c4.043,2.765,11.275,10.637,11.061,15.957
			c0,1.703-4.256,8.298-9.359,15.322c-5.744,7.447-13.193,17.234-21.492,28.725c-10.854,15.108-19.791,30.428-20,34.684
			c0,0.641,0.209,1.064,1.061,1.064c3.996,0,37.873-28.434,65.559-55.58c3.627-5.239,7.342-10.528,11.039-15.703l34.9-48.09
			c-12.982,3.191-21.066,7.447-23.195,9.576c-2.768,2.765,3.402,6.81,6.385,8.725c0.848,0.424,0.213,1.064-0.428,1.064
			c-9.578-0.854-16.17-6.171-16.596-8.299c-3.195-9.789,8.084-20.002,11.488-21.279c6.809-2.979,18.516-5.32,34.26-6.811
			c4.256-6.808,8.084-12.766,10.854-17.234c4.469-8.725,6.809-15.746,3.189-17.661C1074.957,17.306,1075.395,17.225,1076.176,17.225
			 M1076.176,15.241c-0.941,0-3.144,0-3.144,2.064v1.984l1.343,0.001c0.691,0.812,1.306,3.796-4.271,14.701
			c-1.409,2.274-3.063,4.887-4.975,7.907c-1.645,2.596-3.434,5.422-5.312,8.422c-15.506,1.517-26.889,3.822-33.848,6.855
			c-4.558,1.763-16.114,12.799-12.65,23.65c0.842,3.303,8.197,8.678,17.842,9.694l-18.601,25.63
			c-3.614,5.061-7.297,10.298-10.956,15.584c-26.836,26.298-55.232,49.964-62.725,54.231c1.696-5.021,8.789-17.407,19.24-31.957
			c8.721-12.076,16.42-22.146,21.453-28.67l0.017-0.023l0.017-0.022c9.583-13.189,9.736-15.648,9.738-16.451
			c0.223-6.428-7.697-14.711-11.859-17.588c-4.025-3.229-7.557-3.908-9.816-3.908c-0.727,0-1.25,0.072-1.508,0.11h-8.294l7.543,3.76
			c0.318,0.158,0.548,0.273,0.409,1.383l-0.016,0.123v0.124c0,3.063-2.331,8.204-6.235,13.75
			c-5.826,8.613-11.673,16.932-17.329,24.977c-13.805,19.64-25.729,36.602-30.342,47.98c-0.424,1.07-0.979,2.635-0.993,4.091
			c-0.267,5.191,4.851,11.211,7.068,13.564c3.966,4.207,10.308,9.12,15.128,9.12c1.312,0,4.799,0,20.836-14.141
			c7.918-6.982,16.211-15.051,22.35-21.306c-2.469,4.339-4.223,7.812-5.244,10.39c-0.067,0.168-0.145,0.353-0.225,0.541
			c-0.451,1.07-0.961,2.28-0.976,3.538c-0.188,4.11,3.024,9.002,9.823,14.953l0.057,0.049l0.061,0.045
			c1.32,0.99,8.141,5.93,12.684,5.93c1.312,0,4.799,0,20.834-14.141c9.485-8.364,19.499-18.281,25.708-24.773
			c14.597-15.491,24.58-27.045,29.06-32.695l0.03-0.039l0.028-0.04c0.795-1.11,0.927-2.438,0.355-3.551
			c-0.538-1.044-1.613-1.694-2.807-1.694c-0.963,0-1.918,0.424-2.691,1.196c-26.918,26.51-57.158,51.071-64.764,55.384
			c1.686-4.865,10.035-19.72,41.727-63.793c1.748-2.432,2.443-3.399,2.672-3.745l37.744-52.216
			c11.148-1.052,21.148-1.492,26.586-1.732c0.775-0.034,1.445-0.063,2.002-0.09c10.906-0.401,21.842-0.613,31.604-0.613
			c11.313,0,20.752,0.283,27.296,0.82l0.553,0.045l0.494-0.247c1.051-0.523,1.614-1.381,1.545-2.354
			c-0.046-0.66-0.444-1.479-1.412-1.876c-9.783-4.899-50.055-10.839-76.107-11.401l4.988-6.898l0.094-0.129l0.071-0.143
			c0.264-0.525,0.623-1.24,0.638-2.111c0.23-5.336-4.139-14.421-12.715-20.799C1082.165,15.693,1078.196,15.241,1076.176,15.241
			L1076.176,15.241z M1027.159,80.35c0.001,0,0.021-0.051,0.114-0.146c1.324-1.325,6.986-4.625,16.879-7.588l-10.062,13.865
			c-0.208-0.249-0.481-0.479-0.834-0.671C1027.254,81.944,1027.124,80.584,1027.159,80.35L1027.159,80.35L1027.159,80.35z"/>
	</g>
	<g>
		<linearGradient id="SVGID_2_" gradientUnits="userSpaceOnUse" x1="1041.2656" y1="68.9888" x2="1038.2567" y2="342.799">
			<stop  offset="0.0102" style="stop-color:#ED2024"/>
			<stop  offset="1" style="stop-color:#811517"/>
		</linearGradient>
		<path class="st3" d="M992.465,204.627c-3.105,0-8.224-3.011-11.664-5.59c-6.424-5.622-9.447-10.081-9.26-13.646
			c0-0.918,0.447-1.98,0.843-2.917c0.083-0.197,0.165-0.39,0.239-0.577c1.906-4.809,6.453-12.863,13.528-23.963
			c-2.521,2.741-5.112,5.524-7.731,8.304c-11.984,12.527-38.828,38.39-45.32,38.39c-4.004,0-9.861-4.312-13.891-8.586
			c-4.321-4.584-6.791-9.203-6.605-12.354c0-1.165,0.496-2.552,0.869-3.493c4.541-11.201,16.412-28.089,30.158-47.644
			c5.658-8.05,11.511-16.375,17.324-24.971c4.162-5.914,6.548-11.283,6.548-14.734c0.206-1.652-0.194-2.584-1.335-3.152
			l-1.078-0.538h1.205c0.262-0.041,0.719-0.11,1.373-0.11c1.996,0,5.145,0.621,8.809,3.58c4.002,2.736,11.387,10.723,11.166,16.189
			c0.001,2.274-6.582,11.582-9.412,15.478c-5.045,6.54-12.755,16.625-21.493,28.724c-10.985,15.293-19.747,30.461-19.946,34.531
			c0,0.516,0.116,0.767,0.777,0.767c3.743,0,36.742-27.438,65.361-55.499c3.656-5.292,7.371-10.577,11.006-15.665l34.443-47.462
			c-12.737,3.217-20.305,7.311-22.307,9.313c-0.469,0.468-0.666,0.98-0.603,1.565c0.261,2.431,4.94,5.437,6.938,6.721
			c0.585,0.29,0.561,0.703,0.522,0.866c-0.095,0.404-0.579,0.72-1.103,0.72c-9.437-0.84-16.382-6.071-16.874-8.527
			c-3.337-10.218,8.482-20.405,11.667-21.601c6.803-2.976,18.629-5.333,34.193-6.814c2.039-3.262,3.98-6.327,5.752-9.125
			c1.898-2.999,3.603-5.691,5.026-7.989c5.186-10.126,6.259-15.612,3.358-17.228h-0.212l-0.007-0.285c0-0.219,0-0.363,1.443-0.363
			c1.802,0,5.344,0.405,8.812,3.119c8.12,6.038,12.257,14.497,12.023,19.388c0.001,0.479-0.231,0.942-0.456,1.389l-6.933,9.592
			c25.709,0.088,68.873,6.271,78.73,11.308c0.299,0.096,0.382,0.289,0.393,0.432c0.024,0.357-0.416,0.617-0.607,0.712l-0.07,0.035
			l-0.079-0.006c-6.59-0.541-16.077-0.826-27.436-0.826c-9.783,0-20.74,0.213-31.688,0.616l-1.993,0.09
			c-5.578,0.246-15.941,0.703-27.439,1.811l-38.225,52.879c-0.141,0.227-1.083,1.537-2.645,3.709
			c-28.023,38.972-42.293,61.295-42.414,66.351c0.001,0.511,0.121,0.774,0.783,0.774c3.621,0,38.221-27.929,67.251-56.52
			c0.578-0.577,1.129-0.698,1.489-0.698c0.553,0,1.049,0.295,1.293,0.771c0.275,0.535,0.191,1.202-0.225,1.784
			c-4.467,5.634-14.414,17.145-28.963,32.586C1025.799,178.764,998.962,204.627,992.465,204.627z"/>
		<path class="st11" d="M1076.176,17.225c1.756,0,5.248,0.408,8.639,3.059c8.299,6.171,12.127,14.683,11.914,19.151
			c0,0.425-0.213,0.852-0.426,1.275l-7.232,10.002c26.17,0,69.576,6.384,79.154,11.277c0.641,0.213-0.213,0.638-0.213,0.638
			c-6.848-0.562-16.48-0.827-27.458-0.827c-9.831,0-20.74,0.212-31.698,0.616c-4.469,0.211-16.383,0.638-29.576,1.914
			l-38.299,52.983c-1.066,1.703-44.9,61.283-45.113,70.219c0,0.641,0.213,1.064,1.066,1.064c4.043,0,39.578-29.151,67.449-56.602
			c0.438-0.436,0.893-0.617,1.291-0.617c0.961,0,1.591,1.053,0.838,2.107c-4.893,6.171-15.105,17.875-28.939,32.557
			c-14.041,14.683-39.15,38.301-45.107,38.301c-2.982,0-8.086-2.979-11.494-5.533c-5.104-4.467-9.359-9.362-9.146-13.404
			c0-1.064,0.635-2.342,1.062-3.403c2.209-5.575,7.91-15.271,15.289-26.698c-3.062,3.355-6.385,6.942-9.963,10.738
			c-14.047,14.683-39.156,38.301-45.113,38.301c-6.811,0-20.639-13.405-20.213-20.64c0-1.063,0.428-2.341,0.85-3.405
			c6.383-15.746,27.449-42.982,47.453-72.561c4.043-5.744,6.598-11.277,6.598-14.893c0.213-1.704-0.213-2.769-1.492-3.406
			c0.068,0,0.557-0.111,1.373-0.111c1.717,0,4.88,0.488,8.631,3.517c4.043,2.765,11.275,10.637,11.061,15.957
			c0,1.703-4.256,8.298-9.359,15.322c-5.744,7.447-13.193,17.234-21.492,28.725c-10.854,15.108-19.791,30.428-20,34.684
			c0,0.641,0.209,1.064,1.061,1.064c3.996,0,37.873-28.434,65.559-55.58c3.627-5.239,7.342-10.528,11.039-15.703l34.9-48.09
			c-12.982,3.191-21.066,7.447-23.195,9.576c-2.768,2.765,3.402,6.81,6.385,8.725c0.848,0.424,0.213,1.064-0.428,1.064
			c-9.578-0.854-16.17-6.171-16.596-8.299c-3.195-9.789,8.084-20.002,11.488-21.279c6.809-2.979,18.516-5.32,34.26-6.811
			c4.256-6.808,8.084-12.766,10.854-17.234c4.469-8.725,6.809-15.746,3.189-17.661C1074.957,17.306,1075.395,17.225,1076.176,17.225
			 M1076.176,16.658c-1.135,0-1.727,0.029-1.727,0.646v0.567l0.426,0.001c2.617,1.558,1.457,7.069-3.546,16.836
			c-1.4,2.256-3.069,4.893-5.003,7.946c-1.75,2.765-3.666,5.791-5.679,9.009c-15.524,1.484-27.331,3.844-34.154,6.829
			c-3.202,1.2-15.179,11.533-11.81,21.945c0.564,2.542,7.598,7.87,17.095,8.717l0.024,0.002h0.025c0.66,0,1.252-0.403,1.379-0.938
			c0.041-0.177,0.114-0.778-0.669-1.185c-1.978-1.27-6.541-4.21-6.786-6.497c-0.054-0.495,0.117-0.931,0.521-1.334
			c1.865-1.866,9.269-5.887,21.416-9.044l-33.981,46.824c-3.629,5.079-7.333,10.349-11.016,15.669
			c-28.029,27.479-61.511,55.38-65.123,55.38c-0.455,0-0.494-0.082-0.494-0.498c0.197-3.996,8.936-19.098,19.894-34.353
			c8.735-12.094,16.443-22.177,21.481-28.709c3.546-4.88,9.478-13.385,9.478-15.668c0.227-5.625-7.128-13.566-11.309-16.425
			c-3.692-2.983-6.908-3.615-8.95-3.615c-0.676,0-1.148,0.072-1.35,0.103l-0.067,0.01h-2.408l2.198,1.072
			c1.028,0.513,1.371,1.332,1.184,2.828l-0.005,0.035v0.036c0,3.394-2.366,8.704-6.493,14.566
			c-5.818,8.603-11.67,16.927-17.328,24.977c-13.756,19.568-25.636,36.469-30.188,47.698c-0.384,0.966-0.891,2.388-0.891,3.618
			c-0.189,3.194,2.309,7.892,6.684,12.532c4.07,4.318,10.008,8.675,14.096,8.675c6.584,0,33.514-25.922,45.523-38.476
			c1.893-2.009,3.771-4.019,5.617-6.013c-6.134,9.761-10.123,16.936-11.881,21.372c-0.073,0.182-0.154,0.374-0.236,0.57
			c-0.406,0.961-0.865,2.052-0.865,3.042c-0.191,3.628,2.863,8.162,9.34,13.831c3.508,2.631,8.693,5.673,11.867,5.673
			c6.589,0,33.512-25.922,45.518-38.476c14.559-15.451,24.512-26.969,28.973-32.597c0.496-0.692,0.589-1.47,0.264-2.101
			c-0.293-0.57-0.885-0.925-1.545-0.925c-0.414,0-1.043,0.135-1.691,0.782c-28.985,28.547-63.47,56.436-67.049,56.436
			c-0.459,0-0.499-0.082-0.499-0.498c0.119-4.983,14.371-27.253,42.36-66.178c1.74-2.42,2.516-3.5,2.666-3.74l38.127-52.745
			c11.439-1.099,21.743-1.553,27.297-1.798c0.773-0.034,1.443-0.063,1.998-0.089c10.938-0.403,21.891-0.616,31.671-0.616
			c11.351,0,20.83,0.286,27.412,0.825l0.157,0.013l0.143-0.07c0.3-0.149,0.799-0.477,0.763-0.986
			c-0.013-0.181-0.106-0.506-0.579-0.681c-9.881-5.012-52.502-11.145-78.272-11.318l6.585-9.106l0.027-0.037l0.02-0.041
			c0.229-0.454,0.487-0.97,0.487-1.53c0.235-4.938-3.939-13.506-12.144-19.606C1081.627,17.071,1078.014,16.658,1076.176,16.658
			L1076.176,16.658z"/>
	</g>
	<g>
		<path class="st40" d="M860.973,89.864c12.342,0,27.023,14.045,26.598,24.897c-0.428,10.64-52.346,45.748-90.01,45.962
			c-8.084,11.277-11.065,21.279-11.705,25.746c-0.209,3.192,1.92,4.469,5.109,4.469c0.229,0.009,0.459,0.014,0.691,0.014
			c5.135,0,10.716-2.197,13.564-3.419c22.133-9.786,56.814-29.15,88.52-55.537c0.13-0.097,0.309-0.139,0.516-0.139
			c1.153,0,3.186,1.333,2.465,2.054c-29.156,31.068-81.922,70.859-102.354,70.859c-10,0-29.786-17.237-29.573-27.663
			c0.208-7.661,4.251-17.023,10.849-26.597c11.066-16.173,30.217-33.834,46.389-44.687
			C836.926,96.248,850.547,89.864,860.973,89.864 M802.244,155.19c16.383-3.405,36.17-16.811,50.639-27.661
			c14.262-10.64,22.346-24.471,20.857-25.535C857.566,101.994,823.732,130.295,802.244,155.19 M860.973,87.88
			c-9.891,0-22.98,5.323-40.016,16.274c-17.71,11.886-36.565,30.056-46.952,45.235c-7.11,10.318-10.983,19.886-11.194,27.663
			c-0.132,6.442,5.714,13.388,9.21,16.957c6.216,6.344,15.536,12.745,22.347,12.745c13.229,0,36.414-15.129,49.058-24.148
			c19.54-13.938,39.997-31.628,54.729-47.323c0.703-0.727,0.895-1.764,0.498-2.719c-0.64-1.541-2.849-2.692-4.396-2.692
			c-0.646,0-1.234,0.185-1.703,0.534l-0.041,0.031l-0.04,0.034c-38.808,32.296-77.208,50.452-88.054,55.247
			c-5.018,2.153-9.318,3.25-12.762,3.25c-0.205,0-0.408-0.004-0.612-0.012l-0.04-0.001h-0.039c-1.32,0-2.293-0.263-2.74-0.74
			c-0.297-0.316-0.43-0.835-0.393-1.543c0.748-5.083,4.008-14.298,10.766-23.977c16.611-0.368,38.006-7.374,58.916-19.318
			c15.229-8.699,31.75-21.339,32.039-28.534c0.207-5.257-2.643-11.358-7.818-16.741C875.673,91.796,867.718,87.88,860.973,87.88
			L860.973,87.88z M808.171,151.501c10.142-11.124,21.92-22.081,33.028-30.675c12.509-9.679,23.045-15.483,30.105-16.635
			c-2.05,4.188-9.014,13.844-19.607,21.748C834.041,139.18,819.717,147.599,808.171,151.501L808.171,151.501z"/>
	</g>
	<g>
		<linearGradient id="SVGID_3_" gradientUnits="userSpaceOnUse" x1="831.8105" y1="66.4189" x2="828.796" y2="340.7452">
			<stop  offset="0.0102" style="stop-color:#ED2024"/>
			<stop  offset="1" style="stop-color:#811517"/>
		</linearGradient>
		<path class="st4" d="M794.367,205.054c-5.384,0-14.074-5.031-21.132-12.235c-5.632-5.748-8.812-11.476-8.725-15.718
			c0.202-7.45,3.972-16.7,10.898-26.751c10.275-15.018,28.948-33.006,46.464-44.761c16.756-10.773,29.545-16.008,39.1-16.008
			c6.299,0,13.783,3.716,19.535,9.699c4.856,5.051,7.533,10.698,7.346,15.494c-0.223,5.523-13.336,16.931-31.184,27.125
			c-21.035,12.015-42.514,18.974-58.963,19.107c-7.309,10.233-10.801,20.127-11.57,25.504c-0.079,1.211,0.205,2.183,0.846,2.867
			c0.795,0.849,2.135,1.278,3.982,1.278c0.236,0.01,0.463,0.014,0.691,0.014c3.676,0,8.201-1.143,13.452-3.396
			c10.894-4.817,49.474-23.057,88.451-55.495c0.186-0.139,0.416-0.205,0.696-0.205c0.936,0,2.475,0.797,2.826,1.644
			c0.139,0.334,0.082,0.652-0.16,0.894C866.77,166.241,814.297,205.054,794.367,205.054z M873.607,102.278
			c-15.645,0.153-48.609,27.172-70.592,52.455c12.646-2.865,28.918-11.847,49.697-27.43c12.857-9.593,20.947-22.118,20.92-24.838
			C873.631,102.376,873.62,102.316,873.607,102.278z"/>
		<path class="st11" d="M860.973,89.864c12.342,0,27.023,14.045,26.598,24.897c-0.428,10.64-52.346,45.748-90.01,45.962
			c-8.084,11.277-11.065,21.279-11.705,25.746c-0.209,3.192,1.92,4.469,5.109,4.469c0.229,0.009,0.459,0.014,0.691,0.014
			c5.135,0,10.716-2.197,13.564-3.419c22.133-9.786,56.814-29.15,88.52-55.537c0.13-0.097,0.309-0.139,0.516-0.139
			c1.153,0,3.186,1.333,2.465,2.054c-29.156,31.068-81.922,70.859-102.354,70.859c-10,0-29.786-17.237-29.573-27.663
			c0.208-7.661,4.251-17.023,10.849-26.597c11.066-16.173,30.217-33.834,46.389-44.687
			C836.926,96.248,850.547,89.864,860.973,89.864 M802.244,155.19c16.383-3.405,36.17-16.811,50.639-27.661
			c14.262-10.64,22.346-24.471,20.857-25.535C857.566,101.994,823.732,130.295,802.244,155.19 M860.973,89.297
			c-9.611,0-22.449,5.25-39.248,16.05c-17.553,11.779-36.256,29.798-46.55,44.844c-6.958,10.096-10.743,19.398-10.948,26.901
			c-0.088,4.321,3.122,10.124,8.807,15.925c7.106,7.254,15.88,12.32,21.334,12.32c9.512,0,26.643-8.482,48.234-23.884
			c19.475-13.892,39.86-31.519,54.533-47.154c0.311-0.312,0.391-0.75,0.209-1.191c-0.4-0.962-2.061-1.819-3.088-1.819
			c-0.343,0-0.631,0.085-0.854,0.252c-38.972,32.432-77.522,50.659-88.411,55.473c-5.209,2.236-9.697,3.371-13.334,3.371
			c-0.225,0-0.447-0.004-0.669-0.013c-1.788,0-3.059-0.4-3.798-1.189c-0.585-0.625-0.844-1.525-0.768-2.676
			c0.758-5.282,4.211-15.069,11.433-25.219c16.477-0.173,37.942-7.14,58.956-19.144c17.926-10.24,31.101-21.747,31.326-27.36
			c0.191-4.873-2.515-10.596-7.424-15.702C874.909,93.047,867.346,89.297,860.973,89.297L860.973,89.297z M803.809,154.254
			c21.821-24.909,54.029-51.261,69.553-51.688c-0.07,2.139-7.326,14.443-20.816,24.508
			C832.262,142.286,816.293,151.195,803.809,154.254L803.809,154.254z"/>
	</g>
	<g>
		<path class="st40" d="M231.562,1.984c38.3,0,48.727,24.471,49.58,34.896c1.064,15.32-28.09,47.239-68.945,64.263
			c-0.607,0.386-1.243,0.572-1.781,0.572c-1.535,0-2.276-1.511,0.717-4.19c25.322-22.98,52.559-56.175,53.199-74.049
			c0.21-6.171-5.747-8.938-11.28-9.362c-1.5-0.113-3.037-0.168-4.619-0.168c-34.306,0-87.014,26.208-126.881,64.854
			c-44.898,44.26-76.817,95.965-72.985,132.354c1.702,16.17,14.894,25.959,34.896,25.959c40.087,0,108.562-39.009,175.87-98.664
			c5.842-6.249,12.301-12.441,19.038-18.156c20.426-17.234,43.409-30.854,57.878-30.854c19.362,0,34.258,10,33.831,23.832
			c0,3.191-7.445,7.874-13.191,10.427c4.682,4.256,8.085,11.703,7.661,13.618c0,0.426-0.213,0.64-0.426,1.063l-5.32,5.958
			c-18.298,21.065-29.577,39.58-30.002,43.409c0,0.638,0,1.063,1.064,1.063c4.143,0,37.936-28.037,65.244-54.653
			c7.344-10.301,14.042-19.608,17.954-25.142c5.531-8.512,8.512-16.384,4.68-18.299c-0.076,0,0.336-0.136,1.13-0.136
			c1.43,0,4.099,0.44,7.381,2.901c5.32,3.405,8.085,6.811,10.853,11.277c12.341-9.149,25.746-14.469,38.94-14.469
			c15.106,0,31.066,13.618,30.639,25.108c-0.211,4.043-1.488,8.512-2.979,13.405c5.307-0.664,12.184-1.49,18.054-2.126
			c2.202-3.138,4.419-6.272,6.628-9.364l34.898-48.09c-12.981,3.191-21.066,7.447-23.195,9.576c-2.765,2.765,3.406,6.81,6.385,8.725
			c0.85,0.424,0.213,1.064-0.428,1.064c-9.574-0.854-16.17-6.171-16.596-8.299c-3.192-9.789,8.085-20.002,11.49-21.279
			c6.811-2.979,18.514-5.32,34.26-6.811c4.254-6.808,8.086-12.766,10.851-17.234c4.47-8.725,6.811-15.746,3.192-17.661
			c-0.066,0,0.372-0.081,1.152-0.081c1.756,0,5.246,0.408,8.637,3.059c8.298,6.171,12.127,14.683,11.914,19.151
			c0,0.425-0.211,0.852-0.424,1.275l-7.234,10.002c26.172,0,69.578,6.384,79.156,11.277c0.64,0.213-0.213,0.638-0.213,0.638
			c-6.85-0.562-16.48-0.827-27.459-0.827c-9.83,0-20.738,0.212-31.695,0.616c-4.47,0.211-16.387,0.638-29.578,1.914l-38.301,52.983
			c-1.064,1.703-44.9,61.283-45.111,70.219c0,0.641,0.211,1.064,1.064,1.064c3.955,0,38.045-27.897,65.62-54.81
			c6.069-8.09,12.483-16.548,18.64-24.772c3.615-4.469,7.447-10.213,8.299-13.618c0.85-2.979-1.064-4.256-3.192-4.681
			c0.167-0.083,0.988-0.331,2.208-0.331c1.889,0,4.734,0.593,7.578,3.309c11.066,9.787,12.557,17.024,12.131,20.003
			c0,0.424-0.213,0.851-0.427,1.274c0,0-15.319,17.023-23.405,27.025c-16.386,20.641-28.301,39.578-28.514,43.834
			c0,0.851,0.424,2.128,1.488,2.128c6.811,0,74.688-59.368,89.583-78.094c3.407-4.256,7.663-10.638,7.45-16.171
			c0.213-1.703-0.213-2.768-1.492-3.404c-0.052,0,0.191-0.037,0.66-0.037c1.486,0,5.247,0.368,9.131,3.441
			c9.359,7.235,12.341,15.533,11.914,18.512c0,0.427-0.213,0.852-0.213,1.277c0,0-4.043,4.256-9.152,10.427
			c-18.725,23.194-43.191,59.153-43.619,63.622c0,0.641,0.214,1.064,1.064,1.064c4.387,0,37.877-28.083,65.674-55.078
			c6.715-9.648,13.445-19.231,16.886-24.077c5.108-8.299,8.298-16.386,4.683-18.301c0.154-0.078,0.818-0.241,1.848-0.241
			c1.793,0,4.694,0.495,7.938,2.794c9.578,6.598,12.347,14.043,12.133,17.024c-0.214,2.552-9.364,14.469-20.218,28.938
			c5.109-5.957,11.066-11.703,17.023-17.447c11.914-10.853,37.023-32.346,46.602-34.474c0.152-0.03,0.307-0.045,0.465-0.045
			c4.268,0,10.562,10.839,9.535,20.687c-0.428,2.766-1.701,11.064-4.684,13.832c0.215-2.128-0.635-4.47-1.488-6.384
			c-1.493-2.056-4.955-3.946-9.521-3.946c-0.634,0-1.291,0.037-1.965,0.114c-12.347,1.49-25.322,6.598-40.857,19.789
			c-22.129,18.938-38.517,39.367-47.236,55.537c-4.256,7.447-5.75,12.344-5.109,13.407c1.225,1.05,0,1.813-1.539,1.813
			c-0.331,0-0.677-0.036-1.016-0.111c-2.128-0.427-17.658-13.192-15.317-19.576c1.274-3.832,4.256-8.725,8.085-14.896l7.502-10.902
			c-2.672,2.853-5.506,5.836-8.568,8.987c-13.829,14.683-38.939,38.301-45.109,38.301c-7.872,0-21.066-14.043-20.64-22.13
			c0.214-6.808,16.171-28.087,27.023-42.77c-24.896,26.599-55.537,58.092-67.454,64.476c-0.637,0.211-0.637,0.211-0.637,0.211
			c-8.512,0-23.832-14.894-23.619-25.109c0.174-3.227,4.571-10.604,11.219-20.223c-2.15,2.332-4.373,4.726-6.747,7.244
			c-14.045,14.683-39.153,38.301-45.111,38.301c-2.979,0-8.085-2.979-11.49-5.533c-5.106-4.467-9.362-9.362-9.149-13.404
			c0-1.064,0.638-2.342,1.064-3.403c3.678-9.286,17.025-29.972,31.721-51.122c-6.437,0.831-13.123,1.76-17.039,2.393
			c-4.469,9.149-10.853,19.151-19.151,28.301c-17.448,18.938-46.812,43.196-73.836,43.196c-7.021,0-20.642-5.32-26.386-13.194
			c-23.407,37.452-59.793,96.605-50.644,108.522c0,0.272-0.228,0.402-0.637,0.402c-4.068,0-26.054-12.832-20.64-26.362
			c10.426-26.386,40.002-75.965,58.516-102.564c2.223-3.334,4.754-7.043,7.446-10.936c-18.263,19.291-41.045,41.077-49.364,43.492
			c-0.638,0.213-0.851,0.213-1.064,0.213c-3.616,0-8.936-2.128-13.405-5.957c-4.68-4.469-9.576-11.066-8.936-15.533
			c0-0.64,0.213-1.49,0.424-2.128c1.49-3.618,8.938-14.683,25.535-35.324c-7.021,7.448-18.938,19.791-27.663,26.812
			c-21.49,18.298-38.514,31.917-45.961,31.917c-6.171,0-22.981-12.555-22.554-23.832c0.122-3.907,1.953-8.871,5.002-14.412
			c-43.297,42.078-99.345,88.675-135.223,88.675c-27.448,0-76.814-16.597-78.729-58.729c-1.491-34.045,24.682-80.006,62.132-117.245
			c0.352-0.345,0.713-0.685,1.068-1.028c0.22-3.369-1.105-8.2-8.515-12.388h16.332c0,0,1.121,1.152,2.343,2.928
			C139.723,30.731,192.778,1.984,231.562,1.984 M406.466,156.041c24.044-13.832,43.62-18.725,65.113-23.193l3.405-0.638
			c7.659-10.427,11.915-19.576,12.127-27.023c0.213-4.043-1.49-7.021-6.597-7.021c-7.659,0-21.49,7.234-33.407,15.957
			C434.129,123.484,422.638,135.828,406.466,156.041 M255.816,189.024c7.659,0,86.603-52.985,88.731-69.582
			c0-0.425,0-1.064-0.64-1.488c0.247-0.083,0.66-0.125,1.182-0.125c2.187,0,6.293,0.747,8.18,2.464
			c1.704-1.701,2.981-6.809,3.619-11.701c0.637-5.109-1.491-8.726-5.744-8.726c-13.407,0-38.729,19.576-52.772,32.771
			c-24.044,22.554-44.047,47.662-44.26,54.896C254.112,188.174,254.325,189.024,255.816,189.024 M395.613,191.576
			c20.215,0,51.708-26.384,73.411-51.705c-27.023,5.744-78.518,35.108-78.942,48.514
			C389.869,191.152,393.274,191.576,395.613,191.576 M231.562,0c-18.763,0-41.79,6.66-66.593,19.26
			c-22.75,11.557-45.804,27.411-66.792,45.923c-0.69-0.852-1.185-1.363-1.217-1.396l-0.584-0.601l-0.838,0H79.208h-7.544
			l6.567,3.712c4.852,2.742,7.438,6.115,7.526,9.796c-0.165,0.158-0.329,0.316-0.492,0.475
			c-18.983,18.876-34.895,39.722-46.025,60.294c-11.657,21.544-17.432,41.757-16.701,58.456
			c1.107,24.37,17.342,38.894,30.766,46.788c17.351,10.204,37.177,13.839,49.945,13.839c16.642,0,38.839-9.731,65.976-28.922
			c18.921-13.382,40.207-31.297,63.364-53.326c-0.678,2.18-1.047,4.164-1.102,5.94c-0.187,4.938,2.531,10.595,7.653,15.915
			c5.469,5.68,12.728,9.963,16.884,9.963c7.737,0,22.569-11.378,47.227-32.373c1.92-1.546,4.068-3.404,6.44-5.57
			c-3.927,5.511-6.503,9.59-7.412,11.797l-0.027,0.066l-0.022,0.067c-0.187,0.563-0.493,1.628-0.522,2.603
			c-0.653,5.271,4.487,12.285,9.548,17.117l0.039,0.037l0.041,0.035c4.562,3.909,10.331,6.435,14.696,6.435
			c0.467,0,0.89-0.05,1.655-0.303c7.115-2.099,22.291-15.946,34.551-28.03c-19.31,28.886-44.409,72.195-53.584,95.414
			c-1.871,4.675-1.066,9.803,2.33,14.82c5.479,8.093,16.651,14.256,20.155,14.256c1.721,0,2.622-1.201,2.622-2.387v-0.674
			l-0.411-0.535c-1.958-2.551-2.835-11.474,13.301-42.563c10.967-21.13,26.696-46.479,36.006-61.385
			c6.909,7.278,19.545,11.812,26.149,11.812c12.555,0,26.55-4.986,41.594-14.819c11.295-7.383,23.264-17.688,33.701-29.017
			c7.457-8.222,14.014-17.828,19.017-27.846c2.854-0.445,6.982-1.032,11.537-1.642c-10.189,14.791-25.29,37.492-29.389,47.841
			c-0.069,0.172-0.148,0.359-0.229,0.551c-0.45,1.066-0.959,2.272-0.974,3.526c-0.19,4.112,3.025,9.005,9.827,14.955l0.056,0.049
			l0.06,0.045c1.32,0.99,8.135,5.93,12.681,5.93c1.312,0,4.799,0,20.834-14.141c6.723-5.928,13.715-12.64,19.43-18.358
			c-1.234,2.605-1.551,4.065-1.605,5.085l-0.002,0.033l-0.001,0.033c-0.108,5.224,3.329,11.919,9.196,17.911
			c4.367,4.459,10.971,9.225,16.406,9.225h0.319l0.304-0.101l0.637-0.211l0.163-0.054l0.151-0.081
			c7.685-4.117,23.754-18.799,47.887-43.74c-6.188,9.144-10.256,16.354-10.377,20.223c-0.229,4.347,2.74,10.243,7.944,15.729
			c5.018,5.289,10.505,8.447,14.679,8.447c7.068,0,29.33-21.482,40.309-32.53c-1.904,3.273-3.281,5.976-4.092,8.403
			c-0.74,2.054-0.302,4.546,1.303,7.41c3.586,6.402,13.006,14.265,15.498,14.764c0.432,0.096,0.918,0.149,1.406,0.149
			c1.936,0,3.379-0.782,3.863-2.091c0.132-0.355,0.429-1.477-0.477-2.636c0.11-1.244,1.34-5.115,4.984-11.493
			c9.529-17.67,26.58-37.707,46.803-55.014c13.6-11.547,26.25-17.69,39.806-19.326c0.573-0.066,1.157-0.101,1.728-0.101
			c3.773,0,6.598,1.472,7.801,2.978c0.639,1.457,1.404,3.493,1.235,5.17l-0.525,5.227l3.849-3.573
			c3.12-2.896,4.514-9.927,5.291-14.964l0.008-0.048l0.008-0.069c0.804-7.693-2.482-15.831-6.143-19.893
			c-1.759-1.952-3.613-2.984-5.365-2.984c-0.288,0-0.576,0.028-0.854,0.084c-10.463,2.324-36.127,24.691-45.268,32.891
			c2.885-4.174,4.113-6.448,4.227-7.796c0.271-3.799-2.964-11.921-12.984-18.824c-3.662-2.596-6.953-3.144-9.064-3.144
			c-1.15,0-2.174,0.168-2.736,0.451l-3.444,1.725l3.403,1.803c0.099,0.052,0.281,0.148,0.398,0.576
			c0.495,1.821-0.771,6.683-5.807,14.876c-3.098,4.363-9.632,13.656-16.75,23.882c-27.171,26.374-54.658,49.089-62.486,53.594
			c4.197-8.45,24.795-38.82,42.432-60.666c4.985-6.022,9.006-10.265,9.046-10.307l0.546-0.575v-0.751
			c0.01-0.065,0.029-0.13,0.047-0.196c0.062-0.247,0.145-0.576,0.162-0.966c0.475-4.014-3.106-12.836-12.682-20.237
			c-4.396-3.479-8.699-3.855-10.344-3.855c-2.307,0-2.652,1.266-2.652,2.021v1.984l1.408,0c0.136,0.168,0.195,0.472,0.107,1.174
			l-0.021,0.161l0.007,0.162c0.146,3.802-2.279,8.938-7.017,14.854c-15.185,19.09-78.46,73.718-87.532,77.191
			c0.396-3.547,11.111-21.213,28.078-42.585c7.949-9.834,23.173-26.762,23.326-26.932l0.178-0.198l0.119-0.238
			c0.254-0.503,0.595-1.181,0.635-2.007c0.291-2.342,0.066-10.263-12.77-21.625c-3.33-3.165-6.688-3.831-8.92-3.831
			c-1.395,0-2.561,0.271-3.098,0.542l-5.16,2.589l5.661,1.13c0.843,0.168,1.452,0.474,1.675,0.838
			c0.217,0.354,0.118,0.931-0.002,1.352l-0.01,0.032l-0.008,0.032c-0.662,2.654-3.844,7.818-7.916,12.851l-0.023,0.029l-0.021,0.03
			c-3.374,4.507-6.825,9.084-10.255,13.633c-2.796,3.709-5.579,7.398-8.292,11.015c-26.734,26.078-55.457,49.317-62.838,53.5
			c1.687-4.865,10.033-19.712,41.697-63.751c1.768-2.46,2.471-3.438,2.7-3.787l37.745-52.215
			c11.145-1.052,21.145-1.492,26.584-1.732c0.775-0.034,1.448-0.064,2.006-0.09c10.904-0.401,21.84-0.614,31.602-0.614
			c11.313,0,20.752,0.284,27.297,0.82l0.551,0.045l0.495-0.247c1.052-0.523,1.614-1.381,1.546-2.354
			c-0.047-0.66-0.445-1.479-1.413-1.876c-9.782-4.899-50.054-10.839-76.107-11.401l4.989-6.898l0.093-0.128l0.071-0.142
			c0.264-0.522,0.622-1.235,0.637-2.114c0.229-5.335-4.139-14.42-12.715-20.797c-3.833-2.999-7.801-3.451-9.82-3.451
			c-0.941,0-3.144,0-3.144,2.064v1.984l1.343,0c0.689,0.812,1.303,3.797-4.273,14.702c-1.412,2.28-3.07,4.899-4.987,7.928
			c-1.64,2.59-3.425,5.41-5.298,8.401c-15.504,1.517-26.887,3.821-33.848,6.855c-4.557,1.762-16.114,12.797-12.652,23.65
			c0.842,3.303,8.197,8.678,17.844,9.694l-18.6,25.63c-1.995,2.792-4.052,5.696-6.13,8.654c-5.147,0.564-10.547,1.213-14.175,1.659
			c1.137-3.916,2.01-7.524,2.189-10.959c0.19-5.121-2.369-10.688-7.205-15.708c-6.828-7.086-16.567-11.489-25.416-11.489
			c-12.563,0-25.804,4.701-38.405,13.615c-2.549-3.812-5.389-6.944-10.258-10.071c-3.8-2.83-6.961-3.253-8.512-3.253
			c-2.073,0-3.124,0.712-3.124,2.117v1.984l1.388,0.001c0.097,0.109,0.183,0.264,0.248,0.5c0.511,1.879-0.789,6.727-5.965,14.7
			c-2.208,3.123-5.309,7.455-8.896,12.469c-2.742,3.831-5.774,8.068-8.928,12.491c-25.877,25.208-54.307,48.647-62.166,53.198
			c2.578-5.76,12.583-21.67,28.87-40.42l5.302-5.938l0.174-0.195l0.118-0.234c0.037-0.074,0.075-0.138,0.11-0.198
			c0.181-0.312,0.475-0.819,0.521-1.555c0.395-2.824-2.609-8.924-6.307-13.221c4.178-2.131,11.807-6.62,11.844-10.994
			c0.166-5.637-1.97-10.909-6.178-15.249c-6.532-6.737-17.334-10.601-29.638-10.601c-13.798,0-35.913,11.709-59.158,31.321
			c-6.655,5.646-13.094,11.784-19.144,18.25c-33.117,29.345-66.909,54.031-97.731,71.397
			c-31.008,17.471-57.549,26.706-76.753,26.706c-19.021,0-31.329-9.04-32.922-24.182c-3.493-33.17,24.251-83.264,72.405-130.733
			c18.95-18.37,42.049-34.911,65.031-46.563c22.536-11.427,44.007-17.721,60.458-17.721c1.53,0,3.034,0.055,4.47,0.163
			c1.612,0.123,9.659,1.058,9.446,7.315c-0.28,7.824-6.141,19.578-16.948,33.987c-9.481,12.64-22.457,26.731-35.602,38.661
			c-2.877,2.575-2.952,4.507-2.506,5.673c0.464,1.216,1.661,1.971,3.123,1.971c0.886,0,1.833-0.277,2.687-0.784
			c40.847-17.066,71.172-49.563,70.019-66.172c-0.492-6.02-3.726-15.107-11.331-22.631C262.459,4.88,248.548,0,231.562,0L231.562,0z
			 M541.383,80.349c0,0,0.02-0.05,0.114-0.145c1.323-1.324,6.985-4.624,16.878-7.587l-10.061,13.865
			c-0.209-0.25-0.482-0.479-0.836-0.671C541.478,81.941,541.348,80.583,541.383,80.349L541.383,80.349L541.383,80.349z
			 M414.321,149.518c13.754-16.639,23.403-26.181,33.947-33.787c12.738-9.323,25.692-15.582,32.247-15.582
			c1.701,0,2.927,0.385,3.646,1.143c0.735,0.774,1.061,2.05,0.969,3.791c-0.194,6.755-3.989,15.256-11.285,25.323l-2.632,0.493
			C452.396,134.809,434.908,139.01,414.321,149.518L414.321,149.518z M256.162,186.989c1.228-6.938,19.546-30.373,43.567-52.905
			c13.791-12.958,38.862-32.234,51.415-32.234c1.155,0,2.064,0.366,2.702,1.089c0.973,1.102,1.364,3.073,1.073,5.407
			c-0.564,4.325-1.438,7.465-2.23,9.204c-2.46-1.229-5.658-1.705-7.6-1.705c-0.761,0-1.354,0.075-1.811,0.228l-3.857,1.29
			l3.121,2.068c-1.168,6.468-16.904,21.459-41.26,39.282C279.042,174.985,260.012,186.135,256.162,186.989L256.162,186.989z
			 M395.613,189.592c-2.742,0-3.416-0.642-3.483-0.715c-0.035-0.038-0.088-0.095-0.069-0.34l0.003-0.044l0.001-0.045
			c0.166-5.235,11.364-15.24,28.53-25.489c14.436-8.619,30.43-15.902,42.68-19.554c-10.441,11.582-21.889,22.175-32.699,30.223
			C416.545,184.071,404.455,189.592,395.613,189.592L395.613,189.592z"/>
	</g>
	<g>
		<linearGradient id="SVGID_4_" gradientUnits="userSpaceOnUse" x1="412.0269" y1="48.9546" x2="412.0269" y2="313.4639">
			<stop  offset="0.0102" style="stop-color:#ED2024"/>
			<stop  offset="1" style="stop-color:#811517"/>
		</linearGradient>
		<path class="st5" d="M331.14,300.785c-2.864,0-13.463-5.705-18.747-13.508c-3.109-4.593-3.834-9.049-2.156-13.243
			c9.969-25.227,38.855-74.331,58.546-102.621c1.573-2.359,3.384-5.031,5.404-7.973c-17.938,18.749-39.002,38.638-47.01,40.963
			c-0.671,0.225-0.911,0.225-1.144,0.225c-3.983,0-9.317-2.365-13.589-6.025c-4.589-4.381-9.698-11.136-9.032-15.789
			c-0.003-0.764,0.304-1.778,0.436-2.177c0.668-1.624,4.134-8.37,21.513-30.313c-9.69,10.086-17.478,17.511-23.194,22.111
			c-23.785,20.252-38.963,31.98-46.139,31.98c-3.683,0-10.561-4.148-15.659-9.442c-4.799-4.984-7.348-10.199-7.178-14.684
			c0.107-3.436,1.512-7.782,4.18-12.934c-74.633,72.265-114.118,87.491-134.118,87.491c-12.544,0-32.026-3.574-49.083-13.604
			c-13.061-7.681-28.856-21.791-29.929-45.396c-1.417-32.363,23.004-78.468,62.215-117.459l0.991-0.955
			c0.177-3.248-1.155-7.932-8.378-12.014l-0.938-0.53h17.529l0.083,0.086c0.044,0.045,1.043,1.078,2.19,2.701
			c44.966-40.085,97.392-65.974,133.63-65.974c16.765,0,29.897,4.583,39.032,13.621c7.275,7.198,10.365,15.844,10.831,21.537
			c1.116,16.068-28.834,47.761-69.119,64.547c-0.582,0.375-1.268,0.594-1.89,0.594c-0.751,0-1.325-0.328-1.535-0.877
			c-0.208-0.546-0.218-1.766,2.062-3.808c25.917-23.52,52.481-56.44,53.105-73.848c0.207-6.055-5.807-8.67-11.019-9.069
			c-1.478-0.111-3.025-0.167-4.597-0.167c-34.688,0-87.966,27.241-126.684,64.774c-48.512,47.822-76.446,98.448-72.901,132.12
			c1.694,16.096,14.634,25.705,34.614,25.705c39.749,0,107.066-37.778,175.682-98.592c6.004-6.424,12.417-12.541,19.042-18.161
			c22.605-19.073,44.853-30.921,58.062-30.921c11.846,0,22.203,3.676,28.417,10.084c3.887,4.009,5.857,8.864,5.697,14.041
			c0,3.393-7.61,8.061-12.969,10.501c4.491,4.269,7.896,11.5,7.432,13.596c0.007,0.328-0.139,0.579-0.292,0.844
			c-0.05,0.086-0.104,0.179-0.158,0.286l-5.362,6.02c-18.917,21.778-29.542,39.734-29.932,43.251
			c0.002,0.599,0.002,0.749,0.783,0.749c3.87,0,36.737-26.98,65.046-54.573c3.157-4.436,6.225-8.723,8.996-12.595
			c3.607-5.041,6.711-9.378,8.924-12.507c4.734-7.287,6.995-13.157,6.195-16.097c-0.223-0.818-0.665-1.393-1.352-1.754h-0.215
			l-0.009-0.286c0-0.135,0-0.417,1.423-0.417c1.347,0,4.119,0.384,7.551,2.958c5.258,3.364,8.047,6.755,10.762,11.094
			c12.744-9.384,26.175-14.342,38.862-14.342c8.403,0,17.672,4.203,24.191,10.969c4.513,4.683,6.903,9.809,6.731,14.434
			c-0.207,3.969-1.41,8.27-2.863,13.059c3.292-0.411,10.708-1.322,17.498-2.059c2.178-3.103,4.371-6.203,6.556-9.261l34.441-47.462
			c-12.738,3.217-20.305,7.311-22.307,9.313c-0.468,0.468-0.664,0.979-0.602,1.564c0.261,2.428,4.939,5.437,6.938,6.722
			c0.586,0.29,0.562,0.702,0.523,0.866c-0.095,0.404-0.58,0.721-1.104,0.721c-9.438-0.84-16.382-6.071-16.874-8.527
			c-3.335-10.22,8.485-20.406,11.669-21.6c6.804-2.977,18.631-5.334,34.193-6.814c2.033-3.253,3.969-6.311,5.736-9.104
			c1.904-3.008,3.613-5.708,5.039-8.011c5.186-10.125,6.26-15.611,3.361-17.228h-0.212l-0.007-0.285c0-0.219,0-0.363,1.443-0.363
			c1.801,0,5.342,0.405,8.811,3.119c8.121,6.038,12.257,14.497,12.023,19.388c0,0.486-0.241,0.966-0.455,1.389l-6.933,9.592
			c25.709,0.088,68.873,6.271,78.731,11.308c0.299,0.096,0.381,0.289,0.392,0.432c0.024,0.357-0.417,0.617-0.607,0.712l-0.071,0.035
			l-0.078-0.006c-6.59-0.541-16.076-0.826-27.436-0.826c-9.782,0-20.738,0.213-31.686,0.616l-1.997,0.09
			c-5.578,0.246-15.942,0.703-27.437,1.811l-38.226,52.879c-0.142,0.228-1.095,1.553-2.673,3.75
			c-28.005,38.95-42.265,61.26-42.384,66.31c0,0.511,0.121,0.774,0.781,0.774c3.86,0,38.346-28.304,65.422-54.729
			c2.713-3.622,5.525-7.352,8.354-11.102c3.43-4.55,6.883-9.129,10.258-13.638c3.256-4.024,7.365-9.972,8.25-13.517
			c0.312-1.098,0.252-2.008-0.179-2.714c-0.61-1-1.856-1.433-2.794-1.62l-0.809-0.161l0.737-0.37
			c0.234-0.118,1.114-0.361,2.335-0.361c1.928,0,4.842,0.588,7.774,3.388c12.769,11.292,12.415,18.848,12.216,20.248
			c0.002,0.454-0.23,0.916-0.455,1.362c-0.195,0.232-15.449,17.194-23.438,27.076c-16.768,21.121-28.249,39.633-28.451,43.67
			c0,0.588,0.295,1.83,1.205,1.83c6.641,0,74.288-59.037,89.361-77.987c4.996-6.24,7.551-11.767,7.389-15.983
			c0.201-1.633-0.182-2.562-1.277-3.131h-0.216l-0.007-0.285c0-0.319,0.299-0.319,0.951-0.319c1.467,0,5.311,0.341,9.307,3.502
			c9.033,6.982,12.512,15.331,12.02,18.774c0.002,0.208-0.057,0.442-0.113,0.668c-0.051,0.201-0.098,0.391-0.098,0.569v0.113
			l-0.078,0.082c-0.041,0.042-4.096,4.32-9.139,10.412c-19.305,23.913-43.158,59.305-43.555,63.468
			c0.001,0.491,0.121,0.754,0.781,0.754c4.299,0,37.955-28.27,65.476-54.998c7.152-10.285,13.758-19.679,16.853-24.038
			c4.601-7.474,6.8-13.404,6.023-16.255c-0.209-0.766-0.615-1.299-1.242-1.631l-0.486-0.257l0.492-0.247
			c0.208-0.104,0.929-0.271,1.975-0.271c1.525,0,4.609,0.37,8.103,2.846c9.363,6.45,12.484,14.02,12.251,17.276
			c-0.194,2.33-6.977,11.394-16.438,23.983c4.065-4.329,8.47-8.575,12.765-12.717c3.597-3.276,35.412-32.03,46.736-34.546
			c0.177-0.035,0.351-0.052,0.527-0.052c1.256,0,2.674,0.837,4.102,2.421c3.409,3.783,6.467,11.38,5.715,18.578
			c-0.43,2.792-1.725,11.183-4.771,14.011l-0.55,0.51l0.075-0.747c0.217-2.161-0.732-4.596-1.465-6.24
			c-1.254-1.715-4.458-3.778-9.264-3.778c-0.635,0-1.285,0.038-1.934,0.112c-13.899,1.678-26.834,7.945-40.705,19.723
			c-20.375,17.438-37.568,37.651-47.171,55.456c-4.374,7.653-5.624,12.282-5.116,13.126c0.593,0.489,0.598,0.962,0.487,1.262
			c-0.22,0.596-1.11,0.98-2.269,0.98c-0.364,0-0.727-0.04-1.077-0.117c-1.646-0.33-10.747-7.508-14.344-13.927
			c-1.358-2.425-1.755-4.452-1.179-6.024c1.253-3.766,4.025-8.363,8.111-14.947l5.408-7.859c-2.056,2.172-4.047,4.249-6.031,6.291
			c-11.324,12.023-38.461,38.387-45.312,38.387c-3.66,0-8.812-3.034-13.445-7.917c-4.816-5.078-7.682-10.638-7.478-14.512
			c0.198-6.302,13.624-24.724,24.19-39.019c-33.426,35.556-55.02,56.07-64.204,60.99l-0.683,0.23c-0.008,0-0.018,0-0.026,0
			c-4.193,0-10-3.336-15.253-8.699c-5.554-5.671-8.811-11.909-8.711-16.685c0.146-2.712,3.055-8.217,9.111-17.215
			c-1.34,1.443-2.718,2.917-4.15,4.437c-11.982,12.527-38.823,38.39-45.317,38.39c-2.908,0-7.952-2.808-11.66-5.59
			c-6.426-5.62-9.45-10.079-9.263-13.646c0-0.916,0.446-1.974,0.84-2.907c0.085-0.201,0.167-0.397,0.244-0.587
			c4.34-10.959,21.361-36.207,31.387-50.653c-6.527,0.847-12.686,1.713-16.251,2.286c-4.98,10.163-11.593,19.924-19.131,28.235
			c-9.357,10.157-42.346,43.29-74.046,43.29c-6.797,0-20.308-5.043-26.365-12.977c-19.562,31.299-59.757,95.713-50.44,107.849
			l0.059,0.076v0.096C332.061,300.305,331.971,300.785,331.14,300.785z M468.256,140.33c-27.628,6.235-77.481,35.12-77.891,48.064
			c-0.052,0.676,0.117,1.208,0.516,1.639c0.764,0.825,2.399,1.26,4.731,1.26c9.211,0,21.652-5.637,35.979-16.301
			C443.789,165.912,456.784,153.624,468.256,140.33z M351.144,100.15c-14.066,0-40.543,21.385-52.578,32.693
			c-23.316,21.871-43.957,47.43-44.171,54.698c0,0.554,0.162,1.199,1.421,1.199c3.803,0,25.858-13.59,46.272-28.512
			c25.906-18.937,41.279-33.816,42.178-40.822c-0.002-0.37-0.002-0.876-0.515-1.216l-0.484-0.321l0.551-0.184
			c0.277-0.092,0.706-0.14,1.272-0.14c2.235,0,6.156,0.732,8.158,2.355c1.631-1.901,2.8-7.051,3.36-11.345
			c0.356-2.858-0.171-5.253-1.486-6.742C354.16,100.725,352.785,100.15,351.144,100.15z M480.515,98.449
			c-6.994,0-20.042,6.242-33.24,15.902c-12.003,8.659-22.828,19.758-39.657,40.707c23.746-13.436,43.012-18.144,63.903-22.487
			l3.301-0.618c7.762-10.587,11.801-19.594,12.006-26.774c0.118-2.231-0.365-3.931-1.433-5.057
			C484.342,99.011,482.7,98.449,480.515,98.449z"/>
		<path class="st11" d="M231.562,1.984c38.3,0,48.727,24.471,49.58,34.896c1.064,15.32-28.09,47.239-68.945,64.263
			c-0.607,0.386-1.243,0.572-1.781,0.572c-1.535,0-2.276-1.511,0.717-4.19c25.322-22.98,52.559-56.175,53.199-74.049
			c0.21-6.171-5.747-8.938-11.28-9.362c-1.5-0.113-3.037-0.168-4.619-0.168c-34.306,0-87.014,26.208-126.881,64.854
			c-44.898,44.26-76.817,95.965-72.985,132.354c1.702,16.17,14.894,25.959,34.896,25.959c40.087,0,108.562-39.009,175.87-98.664
			c5.842-6.249,12.301-12.441,19.038-18.156c20.426-17.234,43.409-30.854,57.878-30.854c19.362,0,34.258,10,33.831,23.832
			c0,3.191-7.445,7.874-13.191,10.427c4.682,4.256,8.085,11.703,7.661,13.618c0,0.426-0.213,0.64-0.426,1.063l-5.32,5.958
			c-18.298,21.065-29.577,39.58-30.002,43.409c0,0.638,0,1.063,1.064,1.063c4.143,0,37.936-28.037,65.244-54.653
			c7.344-10.301,14.042-19.608,17.954-25.142c5.531-8.512,8.512-16.384,4.68-18.299c-0.076,0,0.336-0.136,1.13-0.136
			c1.43,0,4.099,0.44,7.381,2.901c5.32,3.405,8.085,6.811,10.853,11.277c12.341-9.149,25.746-14.469,38.94-14.469
			c15.106,0,31.066,13.618,30.639,25.108c-0.211,4.043-1.488,8.512-2.979,13.405c5.307-0.664,12.184-1.49,18.054-2.126
			c2.202-3.138,4.419-6.272,6.628-9.364l34.898-48.09c-12.981,3.191-21.066,7.447-23.195,9.576c-2.765,2.765,3.406,6.81,6.385,8.725
			c0.85,0.424,0.213,1.064-0.428,1.064c-9.574-0.854-16.17-6.171-16.596-8.299c-3.192-9.789,8.085-20.002,11.49-21.279
			c6.811-2.979,18.514-5.32,34.26-6.811c4.254-6.808,8.086-12.766,10.851-17.234c4.47-8.725,6.811-15.746,3.192-17.661
			c-0.066,0,0.372-0.081,1.152-0.081c1.756,0,5.246,0.408,8.637,3.059c8.298,6.171,12.127,14.683,11.914,19.151
			c0,0.425-0.211,0.852-0.424,1.275l-7.234,10.002c26.172,0,69.578,6.384,79.156,11.277c0.64,0.213-0.213,0.638-0.213,0.638
			c-6.85-0.562-16.48-0.827-27.459-0.827c-9.83,0-20.738,0.212-31.695,0.616c-4.47,0.211-16.387,0.638-29.578,1.914l-38.301,52.983
			c-1.064,1.703-44.9,61.283-45.111,70.219c0,0.641,0.211,1.064,1.064,1.064c3.955,0,38.045-27.897,65.62-54.81
			c6.069-8.09,12.483-16.548,18.64-24.772c3.615-4.469,7.447-10.213,8.299-13.618c0.85-2.979-1.064-4.256-3.192-4.681
			c0.167-0.083,0.988-0.331,2.208-0.331c1.889,0,4.734,0.593,7.578,3.309c11.066,9.787,12.557,17.024,12.131,20.003
			c0,0.424-0.213,0.851-0.427,1.274c0,0-15.319,17.023-23.405,27.025c-16.386,20.641-28.301,39.578-28.514,43.834
			c0,0.851,0.424,2.128,1.488,2.128c6.811,0,74.688-59.368,89.583-78.094c3.407-4.256,7.663-10.638,7.45-16.171
			c0.213-1.703-0.213-2.768-1.492-3.404c-0.052,0,0.191-0.037,0.66-0.037c1.486,0,5.247,0.368,9.131,3.441
			c9.359,7.235,12.341,15.533,11.914,18.512c0,0.427-0.213,0.852-0.213,1.277c0,0-4.043,4.256-9.152,10.427
			c-18.725,23.194-43.191,59.153-43.619,63.622c0,0.641,0.214,1.064,1.064,1.064c4.387,0,37.877-28.083,65.674-55.078
			c6.715-9.648,13.445-19.231,16.886-24.077c5.108-8.299,8.298-16.386,4.683-18.301c0.154-0.078,0.818-0.241,1.848-0.241
			c1.793,0,4.694,0.495,7.938,2.794c9.578,6.598,12.347,14.043,12.133,17.024c-0.214,2.552-9.364,14.469-20.218,28.938
			c5.109-5.957,11.066-11.703,17.023-17.447c11.914-10.853,37.023-32.346,46.602-34.474c0.152-0.03,0.307-0.045,0.465-0.045
			c4.268,0,10.562,10.839,9.535,20.687c-0.428,2.766-1.701,11.064-4.684,13.832c0.215-2.128-0.635-4.47-1.488-6.384
			c-1.493-2.056-4.955-3.946-9.521-3.946c-0.634,0-1.291,0.037-1.965,0.114c-12.347,1.49-25.322,6.598-40.857,19.789
			c-22.129,18.938-38.517,39.367-47.236,55.537c-4.256,7.447-5.75,12.344-5.109,13.407c1.225,1.05,0,1.813-1.539,1.813
			c-0.331,0-0.677-0.036-1.016-0.111c-2.128-0.427-17.658-13.192-15.317-19.576c1.274-3.832,4.256-8.725,8.085-14.896l7.502-10.902
			c-2.672,2.853-5.506,5.836-8.568,8.987c-13.829,14.683-38.939,38.301-45.109,38.301c-7.872,0-21.066-14.043-20.64-22.13
			c0.214-6.808,16.171-28.087,27.023-42.77c-24.896,26.599-55.537,58.092-67.454,64.476c-0.637,0.211-0.637,0.211-0.637,0.211
			c-8.512,0-23.832-14.894-23.619-25.109c0.174-3.227,4.571-10.604,11.219-20.223c-2.15,2.332-4.373,4.726-6.747,7.244
			c-14.045,14.683-39.153,38.301-45.111,38.301c-2.979,0-8.085-2.979-11.49-5.533c-5.106-4.467-9.362-9.362-9.149-13.404
			c0-1.064,0.638-2.342,1.064-3.403c3.678-9.286,17.025-29.972,31.721-51.122c-6.437,0.831-13.123,1.76-17.039,2.393
			c-4.469,9.149-10.853,19.151-19.151,28.301c-17.448,18.938-46.812,43.196-73.836,43.196c-7.021,0-20.642-5.32-26.386-13.194
			c-23.407,37.452-59.793,96.605-50.644,108.522c0,0.272-0.228,0.402-0.637,0.402c-4.068,0-26.054-12.832-20.64-26.362
			c10.426-26.386,40.002-75.965,58.516-102.564c2.223-3.334,4.754-7.043,7.446-10.936c-18.263,19.291-41.045,41.077-49.364,43.492
			c-0.638,0.213-0.851,0.213-1.064,0.213c-3.616,0-8.936-2.128-13.405-5.957c-4.68-4.469-9.576-11.066-8.936-15.533
			c0-0.64,0.213-1.49,0.424-2.128c1.49-3.618,8.938-14.683,25.535-35.324c-7.021,7.448-18.938,19.791-27.663,26.812
			c-21.49,18.298-38.514,31.917-45.961,31.917c-6.171,0-22.981-12.555-22.554-23.832c0.122-3.907,1.953-8.871,5.002-14.412
			c-43.297,42.078-99.345,88.675-135.223,88.675c-27.448,0-76.814-16.597-78.729-58.729c-1.491-34.045,24.682-80.006,62.132-117.245
			c0.352-0.345,0.713-0.685,1.068-1.028c0.22-3.369-1.105-8.2-8.515-12.388h16.332c0,0,1.121,1.152,2.343,2.928
			C139.723,30.731,192.778,1.984,231.562,1.984 M406.466,156.041c24.044-13.832,43.62-18.725,65.113-23.193l3.405-0.638
			c7.659-10.427,11.915-19.576,12.127-27.023c0.213-4.043-1.49-7.021-6.597-7.021c-7.659,0-21.49,7.234-33.407,15.957
			C434.129,123.484,422.638,135.828,406.466,156.041 M255.816,189.024c7.659,0,86.603-52.985,88.731-69.582
			c0-0.425,0-1.064-0.64-1.488c0.247-0.083,0.66-0.125,1.182-0.125c2.187,0,6.293,0.747,8.18,2.464
			c1.704-1.701,2.981-6.809,3.619-11.701c0.637-5.109-1.491-8.726-5.744-8.726c-13.407,0-38.729,19.576-52.772,32.771
			c-24.044,22.554-44.047,47.662-44.26,54.896C254.112,188.174,254.325,189.024,255.816,189.024 M395.613,191.576
			c20.215,0,51.708-26.384,73.411-51.705c-27.023,5.744-78.518,35.108-78.942,48.514
			C389.869,191.152,393.274,191.576,395.613,191.576 M231.562,1.417c-18.541,0-41.346,6.606-65.951,19.106
			c-23.057,11.713-46.43,27.863-67.632,46.729c-1.081-1.493-1.991-2.434-2.034-2.477l-0.167-0.172h-0.239H79.208h-2.155l1.876,1.061
			c7.014,3.964,8.375,8.478,8.24,11.64l-0.299,0.288c-0.205,0.196-0.41,0.392-0.611,0.59
			c-18.879,18.772-34.705,39.504-45.771,59.955c-11.535,21.319-17.251,41.278-16.531,57.72
			c1.079,23.732,16.947,37.912,30.068,45.628c17.106,10.059,36.645,13.643,49.227,13.643c16.343,0,38.265-9.644,65.157-28.662
			c20.153-14.253,43.006-33.674,67.962-57.753c-2.204,4.545-3.367,8.426-3.465,11.568c-0.172,4.559,2.405,9.848,7.258,14.887
			c5.145,5.344,12.113,9.529,15.863,9.529c7.264,0,22.487-11.752,46.329-32.052c4.949-3.982,11.458-10.089,19.412-18.21
			c-14.493,18.586-17.557,24.57-18.176,26.075c-0.147,0.442-0.457,1.465-0.466,2.302c-0.648,4.758,4.497,11.579,9.111,15.985
			c4.343,3.722,9.75,6.114,13.796,6.114c0.294,0,0.572-0.018,1.244-0.242c7.69-2.232,27.337-20.555,44.752-38.575
			c-1.263,1.854-2.427,3.58-3.485,5.167c-19.693,28.294-48.595,77.424-58.571,102.67c-1.714,4.285-0.979,8.829,2.186,13.505
			c5.332,7.876,16.072,13.633,18.981,13.633c1.146,0,1.204-0.807,1.204-0.969v-0.192l-0.117-0.153
			c-9.163-11.936,30.635-75.811,50.241-107.182c6.226,7.815,19.577,12.766,26.339,12.766c12.275,0,26.009-4.908,40.819-14.588
			c11.2-7.321,23.074-17.545,33.434-28.791c7.526-8.298,14.13-18.032,19.114-28.172c3.465-0.554,9.264-1.37,15.464-2.179
			c-10.076,14.535-26.755,39.332-31.054,50.187c-0.074,0.186-0.157,0.38-0.241,0.58c-0.404,0.958-0.863,2.044-0.863,3.032
			c-0.192,3.629,2.864,8.164,9.343,13.831c3.505,2.631,8.687,5.673,11.863,5.673c6.585,0,33.512-25.922,45.52-38.476
			c0.6-0.636,1.204-1.279,1.82-1.938c-4.803,7.375-7.135,12.043-7.267,14.494c-0.103,4.87,3.185,11.184,8.791,16.908
			c5.315,5.427,11.214,8.799,15.394,8.799h0.091l0.087-0.029l0.637-0.211l0.047-0.015l0.043-0.023
			c8.911-4.773,29.436-24.147,61.051-57.62c-10.02,13.633-21.271,29.555-21.455,35.396c-0.248,4.708,3.74,10.688,7.557,14.71
			c4.684,4.938,9.914,8.005,13.65,8.005c6.942,0,34.168-26.425,45.522-38.479c1.177-1.211,2.356-2.436,3.552-3.686l-3.365,4.891
			c-4.111,6.624-6.891,11.234-8.156,15.038c-0.601,1.638-0.197,3.744,1.203,6.244c3.459,6.175,12.609,13.68,14.541,14.067
			c0.359,0.08,0.742,0.122,1.127,0.122c1.017,0,2.217-0.306,2.535-1.166c0.111-0.302,0.183-0.897-0.538-1.565
			c-0.28-0.767,0.597-4.819,5.144-12.775c9.592-17.788,26.762-37.971,47.112-55.388c13.825-11.739,26.713-17.986,40.557-19.657
			c0.634-0.073,1.274-0.11,1.897-0.11c4.656,0,7.762,1.964,9.029,3.666c0.716,1.613,1.625,3.971,1.417,6.041l-0.15,1.493
			l1.101-1.021c2.795-2.595,4.108-9.313,4.854-14.141c0.768-7.329-2.328-15.016-5.779-18.846c-1.482-1.646-2.974-2.515-4.312-2.515
			c-0.195,0-0.389,0.019-0.576,0.056c-11.408,2.535-43.275,31.335-46.872,34.61c-3.195,3.081-6.446,6.216-9.573,9.398
			c8.676-11.584,13.54-18.337,13.715-20.422c0.247-3.457-2.846-10.973-12.377-17.539c-3.551-2.517-6.699-2.894-8.26-2.894
			c-1.032,0-1.812,0.155-2.102,0.3l-0.984,0.493l0.973,0.515c0.554,0.293,0.914,0.77,1.102,1.456
			c0.756,2.775-1.432,8.624-6.002,16.047c-3.07,4.322-9.661,13.697-16.837,24.006c-29.116,28.273-61.429,54.88-65.239,54.88
			c-0.446,0-0.495-0.078-0.497-0.468c0.485-4.244,24.249-39.457,43.493-63.295c5.032-6.078,9.081-10.35,9.121-10.393l0.156-0.164
			v-0.226c0-0.143,0.043-0.316,0.09-0.5c0.055-0.22,0.117-0.467,0.123-0.734c0.473-3.532-3.042-11.975-12.135-19.003
			c-4.06-3.212-7.979-3.559-9.477-3.559c-0.635,0-1.234,0-1.234,0.603v0.566l0.435,0.001c0.938,0.515,1.249,1.327,1.069,2.767
			l-0.006,0.046l0.002,0.046c0.16,4.147-2.373,9.609-7.326,15.794c-7.746,9.738-29.564,30.118-47.754,45.997
			c-21.846,19.071-38.478,31.885-41.387,31.885c-0.689,0-0.922-1.072-0.922-1.561c0.199-3.965,11.656-22.401,28.392-43.481
			c7.98-9.873,23.229-26.829,23.382-26.999l0.051-0.057l0.035-0.067c0.223-0.442,0.474-0.941,0.486-1.486
			c0.568-4.134-2.369-11.67-12.321-20.471c-2.984-2.851-5.975-3.452-7.954-3.452c-1.227,0-2.161,0.24-2.463,0.391l-1.474,0.74
			l1.618,0.323c0.882,0.176,2.051,0.577,2.607,1.489c0.387,0.636,0.438,1.47,0.15,2.479c-0.88,3.518-4.963,9.424-8.195,13.417
			c-3.387,4.525-6.84,9.104-10.27,13.653c-2.818,3.738-5.622,7.457-8.355,11.1c-28.867,28.168-61.723,54.618-65.193,54.618
			c-0.457,0-0.497-0.082-0.497-0.498c0.118-4.979,14.36-27.235,42.33-66.138c1.76-2.447,2.544-3.54,2.694-3.781l38.129-52.744
			c11.436-1.099,21.74-1.553,27.295-1.797c0.773-0.034,1.445-0.064,2.001-0.09c10.937-0.402,21.89-0.615,31.669-0.615
			c11.352,0,20.83,0.286,27.412,0.825l0.158,0.013l0.141-0.071c0.301-0.149,0.8-0.477,0.764-0.986
			c-0.012-0.182-0.105-0.506-0.578-0.681c-9.877-5.012-52.502-11.145-78.274-11.318l6.587-9.106l0.026-0.037l0.021-0.041
			c0.227-0.452,0.484-0.963,0.484-1.53c0.236-4.937-3.938-13.505-12.143-19.606c-3.525-2.758-7.137-3.171-8.975-3.171
			c-1.135,0-1.727,0.029-1.727,0.646v0.567l0.426,0.001c2.617,1.558,1.455,7.069-3.549,16.836c-1.401,2.262-3.076,4.906-5.014,7.969
			c-1.747,2.759-3.658,5.776-5.664,8.986c-15.524,1.483-27.33,3.844-34.155,6.829c-3.202,1.2-15.179,11.53-11.812,21.944
			c0.564,2.542,7.598,7.871,17.095,8.718l0.024,0.002h0.025c0.66,0,1.254-0.403,1.379-0.939c0.043-0.176,0.115-0.778-0.669-1.185
			c-1.978-1.271-6.54-4.213-6.786-6.498c-0.053-0.495,0.117-0.931,0.521-1.333c1.865-1.866,9.269-5.887,21.416-9.044l-33.979,46.824
			c-2.104,2.945-4.284,6.025-6.485,9.162c-6.474,0.703-13.487,1.562-16.942,1.991c1.402-4.641,2.546-8.825,2.749-12.705
			c0.175-4.711-2.244-9.911-6.811-14.65c-6.57-6.818-15.918-11.055-24.395-11.055c-12.666,0-26.065,4.914-38.784,14.217
			c-2.685-4.249-5.49-7.599-10.704-10.936c-3.463-2.599-6.305-2.991-7.687-2.991c-1.575,0-1.707,0.346-1.707,0.7v0.567l0.434,0.001
			c0.58,0.326,0.958,0.833,1.151,1.546c0.779,2.863-1.469,8.65-6.166,15.878c-2.199,3.11-5.309,7.456-8.911,12.488
			c-2.762,3.859-5.82,8.132-9,12.592c-27.729,27.021-61.076,54.457-64.812,54.457c-0.385,0-0.48-0.066-0.481-0.067
			c-0.016-0.041-0.017-0.238-0.017-0.396c0.434-3.465,11.308-21.709,29.863-43.071l5.315-5.952l0.05-0.056l0.034-0.067
			c0.051-0.101,0.103-0.189,0.15-0.271c0.151-0.26,0.321-0.554,0.336-0.986c0.392-2.181-2.868-9.192-7.227-13.512
			c4.814-2.246,12.759-6.896,12.759-10.594c0.162-5.238-1.836-10.164-5.778-14.229c-6.267-6.463-16.698-10.17-28.62-10.17
			c-13.272,0-35.59,11.874-58.244,30.987c-6.627,5.622-13.042,11.739-19.068,18.183c-33.207,29.429-67.102,54.192-98.025,71.616
			c-31.22,17.59-58.001,26.888-77.449,26.888c-19.82,0-32.655-9.515-34.332-25.451c-1.805-17.143,4.47-38.888,18.147-62.885
			c12.859-22.562,31.765-46.424,54.672-69.005c19.058-18.475,42.28-35.103,65.385-46.818c22.731-11.525,44.429-17.873,61.099-17.873
			c1.565,0,3.105,0.056,4.576,0.166c5.086,0.39,10.956,2.923,10.756,8.778c-0.621,17.328-27.139,50.166-53.014,73.648
			c-2.284,2.044-2.422,3.368-2.135,4.117c0.253,0.664,0.926,1.06,1.799,1.06c0.661,0,1.384-0.225,2.043-0.634
			c18.854-7.863,36.727-19.536,50.327-32.871c12.393-12.151,19.466-24.09,18.921-31.937c-0.47-5.749-3.584-14.47-10.914-21.722
			C261.604,6.028,248.404,1.417,231.562,1.417L231.562,1.417z M408.759,154.092c16.29-20.192,26.921-31.027,38.68-39.511
			c12.954-9.481,26.244-15.85,33.076-15.85c2.104,0,3.677,0.533,4.674,1.584c1.013,1.068,1.469,2.696,1.356,4.841
			c-0.204,7.114-4.202,16.037-11.886,26.537l-3.185,0.597C450.926,136.563,431.954,141.185,408.759,154.092L408.759,154.092z
			 M255.816,188.458c-1.049,0-1.137-0.457-1.137-0.924c0.212-7.188,20.811-32.656,44.082-54.483
			c12.006-11.282,38.406-32.617,52.384-32.617c1.58,0,2.846,0.527,3.765,1.567c1.26,1.428,1.764,3.743,1.417,6.521
			c-0.674,5.171-1.851,9.276-3.127,10.985c-2.115-1.545-5.913-2.244-8.109-2.244c-0.597,0-1.056,0.052-1.362,0.154l-1.102,0.368
			l0.969,0.642c0.349,0.231,0.384,0.54,0.386,0.979c-0.925,6.844-16.639,22.012-42.059,40.594
			C279.639,176.287,259.202,188.458,255.816,188.458L255.816,188.458z M395.613,191.009c-2.251,0-3.815-0.404-4.523-1.169
			c-0.342-0.37-0.487-0.832-0.442-1.412c0.187-5.907,11.11-15.874,29.221-26.687c16.401-9.792,34.827-17.878,47.602-20.938
			c-11.318,13.025-24.069,25.043-36.048,33.96C417.145,185.392,404.762,191.009,395.613,191.009L395.613,191.009z"/>
	</g>
	<linearGradient id="SVGID_5_" gradientUnits="userSpaceOnUse" x1="269.2671" y1="45.9849" x2="269.9607" y2="23.4391">
		<stop  offset="0.0102" style="stop-color:#ED2024"/>
		<stop  offset="0.1864" style="stop-color:#E22024"/>
		<stop  offset="0.4178" style="stop-color:#CD1F23"/>
		<stop  offset="0.6798" style="stop-color:#AE1C20"/>
		<stop  offset="0.9625" style="stop-color:#871619"/>
		<stop  offset="1" style="stop-color:#811517"/>
	</linearGradient>
	<path class="st6" d="M258.708,15.648c0,0,17.833,3.5,22.333,20.833c0.001,9.001-5.828,16.667-5.828,16.667
		s-4.183-16.365-13.812-18.282C261.402,34.866,268.875,19.315,258.708,15.648z"/>
	<linearGradient id="SVGID_6_" gradientUnits="userSpaceOnUse" x1="91.1484" y1="237.2617" x2="50.1481" y2="222.9286">
		<stop  offset="0" style="stop-color:#B92025;stop-opacity:0"/>
		<stop  offset="0.987" style="stop-color:#211010"/>
	</linearGradient>
	<path class="st7" d="M48.271,203.831c0,0-4.373,30.027,24.304,45.379c0,0,12.994,3.659,17.366,4.244
		c0,0-14.505-6.782-11.492-16.562C78.449,236.893,48.167,238.181,48.271,203.831z"/>
	<linearGradient id="SVGID_7_" gradientUnits="userSpaceOnUse" x1="226.8223" y1="169.2153" x2="252.3224" y2="153.2152">
		<stop  offset="0" style="stop-color:#B92025;stop-opacity:0"/>
		<stop  offset="0.987" style="stop-color:#211010"/>
	</linearGradient>
	<path class="st8" d="M258.458,139.222l-19.984,26.665l-19.491,18.389c0,0,10.23-11.345,5.437-16.793
		C224.421,167.482,255.717,141.966,258.458,139.222z"/>
	<linearGradient id="SVGID_8_" gradientUnits="userSpaceOnUse" x1="362.373" y1="112.7002" x2="354.3357" y2="121.8858">
		<stop  offset="0" style="stop-color:#B92025;stop-opacity:0"/>
		<stop  offset="0.987" style="stop-color:#211010"/>
	</linearGradient>
	<path class="st9" d="M356.888,123.698l-3.619-3.405c0,0,3.849-7.294,3.619-11.701l10.578,8.666
		C367.466,117.258,361.485,122.081,356.888,123.698z"/>
	<linearGradient id="SVGID_9_" gradientUnits="userSpaceOnUse" x1="365.5181" y1="154.5386" x2="386.2954" y2="153.9275">
		<stop  offset="0" style="stop-color:#B92025;stop-opacity:0"/>
		<stop  offset="0.987" style="stop-color:#211010"/>
	</linearGradient>
	<polygon class="st10" points="395.109,134.157 375.695,161.749 363.338,174.113 367.466,159.725 	"/>
	<linearGradient id="SVGID_10_" gradientUnits="userSpaceOnUse" x1="458.3354" y1="138.021" x2="469.911" y2="137.6805">
		<stop  offset="0" style="stop-color:#B92025;stop-opacity:0"/>
		<stop  offset="0.987" style="stop-color:#211010"/>
	</linearGradient>
	<path class="st14" d="M474.984,132.21c0,0-0.447,1.439-5.96,7.661c0,0-7.204,1.698-12.066,3.511l4.313-8.295
		C461.271,135.087,470.425,132.604,474.984,132.21z"/>
	<linearGradient id="SVGID_11_" gradientUnits="userSpaceOnUse" x1="509.0371" y1="130.4277" x2="501.0371" y2="131.0947">
		<stop  offset="0" style="stop-color:#B92025;stop-opacity:0"/>
		<stop  offset="0.987" style="stop-color:#211010"/>
	</linearGradient>
	<polygon class="st15" points="503.708,128.805 501.794,133.273 508.022,132.342 508.022,128.272 	"/>
	<linearGradient id="SVGID_12_" gradientUnits="userSpaceOnUse" x1="512.6084" y1="129.2603" x2="523.1084" y2="129.7603">
		<stop  offset="0" style="stop-color:#B92025;stop-opacity:0"/>
		<stop  offset="0.987" style="stop-color:#211010"/>
	</linearGradient>
	<polygon class="st16" points="521.763,126.679 518.403,131.501 511.208,132.21 515.22,127.415 	"/>
	
		<radialGradient id="SVGID_13_" cx="389.4639" cy="185.0205" r="26.1" gradientTransform="matrix(0.8521 -0.5234 0.5048 0.8218 -35.7902 236.8256)" gradientUnits="userSpaceOnUse">
		<stop  offset="0" style="stop-color:#211010"/>
		<stop  offset="0.1625" style="stop-color:#3D1F1C;stop-opacity:0.8375"/>
		<stop  offset="0.4526" style="stop-color:#6C2922;stop-opacity:0.5474"/>
		<stop  offset="0.6991" style="stop-color:#942925;stop-opacity:0.3009"/>
		<stop  offset="0.8892" style="stop-color:#AE2325;stop-opacity:0.1108"/>
		<stop  offset="1" style="stop-color:#B92025;stop-opacity:0"/>
	</radialGradient>
	<path class="st17" d="M406.466,156.041c0,0-32.166,17.297-24.045,35.535c0,0-19.341,12.087-16.007-0.907
		c1.079-4.206,4.098-19.364,9.795-24.354C388.113,155.891,406.466,156.041,406.466,156.041z"/>
	<linearGradient id="SVGID_14_" gradientUnits="userSpaceOnUse" x1="521.6484" y1="188.5229" x2="507.3146" y2="195.8561">
		<stop  offset="0" style="stop-color:#B92025;stop-opacity:0"/>
		<stop  offset="0.987" style="stop-color:#211010"/>
	</linearGradient>
	<path class="st18" d="M510.349,186.142c0,0-1.874,10.481,3.742,14.411l7.671-6.022l-4.334-9.449
		C517.428,185.081,508.99,191.968,510.349,186.142z"/>
	<linearGradient id="SVGID_15_" gradientUnits="userSpaceOnUse" x1="340.3145" y1="189.2163" x2="325.981" y2="196.5493">
		<stop  offset="0" style="stop-color:#B92025;stop-opacity:0"/>
		<stop  offset="0.987" style="stop-color:#211010"/>
	</linearGradient>
	<path class="st19" d="M329.016,186.835c0,0-1.874,10.481,3.743,14.411l7.671-6.022l-4.335-9.449
		C336.094,185.774,327.656,192.661,329.016,186.835z"/>
	<linearGradient id="SVGID_16_" gradientUnits="userSpaceOnUse" x1="569.9766" y1="83.1221" x2="579.3394" y2="58.1539">
		<stop  offset="0" style="stop-color:#B92025;stop-opacity:0"/>
		<stop  offset="0.987" style="stop-color:#211010"/>
	</linearGradient>
	<polygon class="st20" points="563.289,69.225 593.504,64.331 585.262,75.731 553.807,82.292 	"/>
	<linearGradient id="SVGID_17_" gradientUnits="userSpaceOnUse" x1="556.1748" y1="166.5918" x2="569.9169" y2="129.9454">
		<stop  offset="0" style="stop-color:#B92025;stop-opacity:0"/>
		<stop  offset="0.987" style="stop-color:#211010"/>
	</linearGradient>
	<path class="st21" d="M576.776,133.788l-18.231,25.011l-11.447,12.07l4.237-13.505
		C551.335,157.364,574.012,135.011,576.776,133.788z"/>
	<linearGradient id="SVGID_18_" gradientUnits="userSpaceOnUse" x1="635.9805" y1="150.3027" x2="654.1866" y2="101.7518">
		<stop  offset="0" style="stop-color:#B92025;stop-opacity:0"/>
		<stop  offset="0.987" style="stop-color:#211010"/>
	</linearGradient>
	<path class="st22" d="M663.399,106.891l-24.363,32.554l-15.494,16.371l3.894-12.434
		C627.436,143.382,659.127,114.755,663.399,106.891z"/>
	<linearGradient id="SVGID_19_" gradientUnits="userSpaceOnUse" x1="681.9795" y1="166.479" x2="695.7747" y2="129.691">
		<stop  offset="0" style="stop-color:#B92025;stop-opacity:0"/>
		<stop  offset="0.987" style="stop-color:#211010"/>
	</linearGradient>
	<polygon class="st23" points="702.582,133.52 685.59,157.845 673.123,170.869 677.273,157.046 	"/>
	<linearGradient id="SVGID_20_" gradientUnits="userSpaceOnUse" x1="735.4189" y1="142.6411" x2="712.4189" y2="148.1411">
		<stop  offset="0" style="stop-color:#B92025;stop-opacity:0"/>
		<stop  offset="0.987" style="stop-color:#211010"/>
	</linearGradient>
	<path class="st24" d="M725.852,139.657l-17.596,25.933c0,0,21.301-26.06,27.293-29.042s4.309-11.422,4.309-11.422L725.852,139.657z
		"/>
	<linearGradient id="SVGID_21_" gradientUnits="userSpaceOnUse" x1="811.4111" y1="155.5664" x2="800.7855" y2="158.1073">
		<stop  offset="0" style="stop-color:#B92025;stop-opacity:0"/>
		<stop  offset="0.987" style="stop-color:#211010"/>
	</linearGradient>
	<path class="st25" d="M802.244,155.19l-4.684,5.533c0,0,7.387-0.193,12.191-1.145l4.611-8.336L802.244,155.19z"/>
	<g>
		<linearGradient id="SVGID_22_" gradientUnits="userSpaceOnUse" x1="995.0479" y1="80.4214" x2="988.7829" y2="317.4399">
			<stop  offset="0.0102" style="stop-color:#ED2024"/>
			<stop  offset="1" style="stop-color:#811517"/>
		</linearGradient>
		<path class="st26" d="M983.708,81.42c-2.458,0-4.771-1.366-5.586-2.686c-0.521-0.842-0.336-1.492-0.18-1.804
			c8.054-15.218,12.699-27.992,13.091-35.99c-0.002-2.195-0.604-3.648-1.791-4.28h-0.766l-0.008-0.993
			c0-1.034,1.079-1.034,1.658-1.034c1.332,0,4.936,0.308,9.643,3.166c5.379,3.423,8.574,7.552,10.311,10.416
			c1.948,3.214,3.072,6.504,2.933,8.586c0.003,0.593-0.278,0.998-0.603,1.466l-0.202,0.296c-4.188,5.952-24.638,21.615-25.491,22.04
			C985.885,81.129,984.844,81.42,983.708,81.42L983.708,81.42z"/>
		<path class="st40" d="M990.127,35.625c1.365,0,4.723,0.349,9.129,3.022c9.365,5.96,12.98,14.896,12.768,18.088
			c0,0.427-0.213,0.64-0.641,1.277c-4.041,5.744-24.256,21.279-25.107,21.703c-0.813,0.508-1.699,0.713-2.567,0.713
			c-2.769,0-5.365-2.082-4.878-3.054c7.658-14.47,12.768-27.661,13.193-36.386c0-2.342-0.641-4.47-2.555-5.32
			C989.414,35.668,989.646,35.625,990.127,35.625 M990.127,33.641c-2.306,0-2.65,1.27-2.65,2.026v1.984l1.482,0.001
			c0.873,0.637,1.075,2.1,1.08,3.289c-0.4,7.858-5.002,20.464-12.963,35.505c-0.444,0.886-0.363,1.895,0.201,2.81
			c0.945,1.53,3.521,3.157,6.431,3.157c1.324,0,2.542-0.341,3.618-1.015l-0.001-0.002c2.402-1.5,21.615-16.464,25.681-22.241
			c0.098-0.145,0.162-0.238,0.221-0.322c0.356-0.516,0.76-1.098,0.779-2.024c0.207-3.784-3.562-13.393-13.686-19.835
			C995.363,33.963,991.542,33.641,990.127,33.641L990.127,33.641z"/>
	</g>
	<linearGradient id="SVGID_23_" gradientUnits="userSpaceOnUse" x1="975.1807" y1="159.4917" x2="1000.7358" y2="143.9093">
		<stop  offset="0" style="stop-color:#B92025;stop-opacity:0"/>
		<stop  offset="0.987" style="stop-color:#211010"/>
	</linearGradient>
	<polygon class="st27" points="1003.127,133.018 988.176,155.305 975.787,168.554 979.992,154.761 	"/>
	<linearGradient id="SVGID_24_" gradientUnits="userSpaceOnUse" x1="1058.5625" y1="80.228" x2="1064.1514" y2="60.2012">
		<stop  offset="0" style="stop-color:#B92025;stop-opacity:0"/>
		<stop  offset="0.987" style="stop-color:#211010"/>
	</linearGradient>
	<polyline class="st28" points="1079.279,64.331 1049.066,69.225 1041.793,79.247 1068.496,79.247 1080.041,64.331 	"/>
	<linearGradient id="SVGID_25_" gradientUnits="userSpaceOnUse" x1="1008.5029" y1="188.0547" x2="992.5035" y2="196.7214">
		<stop  offset="0" style="stop-color:#B92025;stop-opacity:0"/>
		<stop  offset="0.987" style="stop-color:#211010"/>
	</linearGradient>
	<path class="st29" d="M995.867,187.533c0,0-0.707,17.209,7.26,10.579c7.968-6.63,4.09-15.949,4.09-15.949
		S996.693,192.584,995.867,187.533z"/>
	<linearGradient id="SVGID_26_" gradientUnits="userSpaceOnUse" x1="948.5039" y1="188.0547" x2="932.5045" y2="196.7214">
		<stop  offset="0" style="stop-color:#B92025;stop-opacity:0"/>
		<stop  offset="0.987" style="stop-color:#211010"/>
	</linearGradient>
	<path class="st30" d="M935.867,187.533c0,0-0.707,17.209,7.26,10.579c7.968-6.63,4.09-15.949,4.09-15.949
		S936.693,192.584,935.867,187.533z"/>
	<linearGradient id="SVGID_27_" gradientUnits="userSpaceOnUse" x1="648.1523" y1="188.3872" x2="632.1522" y2="197.0543">
		<stop  offset="0" style="stop-color:#B92025;stop-opacity:0"/>
		<stop  offset="0.987" style="stop-color:#211010"/>
	</linearGradient>
	<path class="st31" d="M635.516,187.867c0,0-0.708,17.209,7.26,10.579c7.967-6.63,4.09-15.949,4.09-15.949
		S636.342,192.918,635.516,187.867z"/>
	<linearGradient id="SVGID_28_" gradientUnits="userSpaceOnUse" x1="586.0117" y1="186.7969" x2="565.9984" y2="197.6378">
		<stop  offset="0" style="stop-color:#B92025;stop-opacity:0"/>
		<stop  offset="0.987" style="stop-color:#211010"/>
	</linearGradient>
	<path class="st32" d="M570.186,186.183c0,0-0.889,21.426,9.117,13.172c10.006-8.256,5.137-19.857,5.137-19.857
		S571.225,192.472,570.186,186.183z"/>
	<linearGradient id="SVGID_29_" gradientUnits="userSpaceOnUse" x1="808.3516" y1="188.6729" x2="783.5804" y2="202.091">
		<stop  offset="0" style="stop-color:#B92025;stop-opacity:0"/>
		<stop  offset="0.987" style="stop-color:#211010"/>
	</linearGradient>
	<path class="st33" d="M785.943,187.897c0,0-0.979,15.095,11.617,16.598c0,0,12.479-3.892,16.803-6.169s-6.988-10.429-6.988-10.429
		S787.513,194.646,785.943,187.897z"/>
	<linearGradient id="SVGID_30_" gradientUnits="userSpaceOnUse" x1="407.0322" y1="192.6953" x2="388.2767" y2="202.2906">
		<stop  offset="0" style="stop-color:#B92025;stop-opacity:0"/>
		<stop  offset="0.987" style="stop-color:#211010"/>
	</linearGradient>
	<path class="st34" d="M390.082,188.385c0,0-0.606,10.021,7.343,13.726l11.381,2.66l-1.474-15.538
		C407.333,189.232,391.456,195.287,390.082,188.385z"/>
	<linearGradient id="SVGID_31_" gradientUnits="userSpaceOnUse" x1="254.1738" y1="192.8281" x2="272.709" y2="192.8281">
		<stop  offset="0" style="stop-color:#211010"/>
		<stop  offset="0.1625" style="stop-color:#3D1F1C;stop-opacity:0.8375"/>
		<stop  offset="0.4526" style="stop-color:#6C2922;stop-opacity:0.5474"/>
		<stop  offset="0.6991" style="stop-color:#942925;stop-opacity:0.3009"/>
		<stop  offset="0.8892" style="stop-color:#AE2325;stop-opacity:0.1108"/>
		<stop  offset="1" style="stop-color:#B92025;stop-opacity:0"/>
	</linearGradient>
	<path class="st35" d="M254.188,186.812c0,0,0.307,14.126,7.935,15.509l13.086-7.754l-7.35-11.232
		C267.859,183.335,253.667,193.143,254.188,186.812z"/>
	
		<linearGradient id="SVGID_32_" gradientUnits="userSpaceOnUse" x1="-11007.7861" y1="6515.8232" x2="-11010.7861" y2="6788.7949" gradientTransform="matrix(-0.5113 0.7552 -0.8281 -0.5607 -182.663 12054.5449)">
		<stop  offset="0.0102" style="stop-color:#ED2024"/>
		<stop  offset="1" style="stop-color:#811517"/>
	</linearGradient>
	<path class="st12" d="M50.109,76.081l-8.351,12.333c0,0-14.941,1.979-15.552-8.669l6.403-7.449
		C32.609,72.296,37.425,81.758,50.109,76.081z"/>
	
		<linearGradient id="SVGID_33_" gradientUnits="userSpaceOnUse" x1="3819.6953" y1="8460.4746" x2="3816.6953" y2="8733.4766" gradientTransform="matrix(0.1617 -0.8975 0.9841 0.1774 -8945.9424 1978.2576)">
		<stop  offset="0.0102" style="stop-color:#ED2024"/>
		<stop  offset="1" style="stop-color:#811517"/>
	</linearGradient>
	<path class="st13" d="M2.278,62.006L4.92,47.349c0,0,12.86-7.86,17.73,1.629l-2.838,9.404C19.812,58.382,11.578,51.68,2.278,62.006
		z"/>
	<linearGradient id="SVGID_34_" gradientUnits="userSpaceOnUse" x1="95.6387" y1="73.8062" x2="107.3048" y2="69.1393">
		<stop  offset="0" style="stop-color:#211010"/>
		<stop  offset="0.1625" style="stop-color:#3D1F1C;stop-opacity:0.8375"/>
		<stop  offset="0.4526" style="stop-color:#6C2922;stop-opacity:0.5474"/>
		<stop  offset="0.6991" style="stop-color:#942925;stop-opacity:0.3009"/>
		<stop  offset="0.8892" style="stop-color:#AE2325;stop-opacity:0.1108"/>
		<stop  offset="1" style="stop-color:#B92025;stop-opacity:0"/>
	</linearGradient>
	<path class="st36" d="M102.95,63.652l-5.072,4.439c0,0,3.575,4.677,2.536,11.033L102.95,63.652z"/>
	<linearGradient id="SVGID_35_" gradientUnits="userSpaceOnUse" x1="364.6694" y1="107.5864" x2="353.0023" y2="94.5857">
		<stop  offset="0" style="stop-color:#B92025;stop-opacity:0"/>
		<stop  offset="0.987" style="stop-color:#211010"/>
	</linearGradient>
	<path class="st37" d="M351.144,99.866c0,0,7.536-4.862,14.883,1.377l3.097,5.647h-12.13
		C356.995,106.891,357.035,98.892,351.144,99.866z"/>
	<linearGradient id="SVGID_36_" gradientUnits="userSpaceOnUse" x1="495.7349" y1="110.4756" x2="488.4017" y2="88.8095">
		<stop  offset="0" style="stop-color:#B92025;stop-opacity:0"/>
		<stop  offset="0.987" style="stop-color:#211010"/>
	</linearGradient>
	<path class="st38" d="M482.066,98.276c0,0,9.48-3.14,19.728,4.2c0,0,4.66,8.47,4.776,10.696l-19.823-4.581
		c0,0,2.011-11.441-4.681-8.775"/>
	<g>
		<linearGradient id="SVGID_37_" gradientUnits="userSpaceOnUse" x1="995.0654" y1="79.7524" x2="988.9897" y2="309.612">
			<stop  offset="0.0102" style="stop-color:#ED2024"/>
			<stop  offset="1" style="stop-color:#811517"/>
		</linearGradient>
		<path class="st39" d="M983.708,80.711c-2.182,0-4.285-1.22-4.983-2.35c-0.322-0.522-0.259-0.895-0.148-1.115
			c8.211-15.515,12.763-28.056,13.164-36.272c0-1.795-0.406-4.128-2.332-5.023h-0.223l-0.008-0.285c0-0.312,0.291-0.326,0.949-0.326
			c1.271,0,4.721,0.298,9.275,3.063c9.463,6.022,13.123,15.064,12.903,18.349c0.001,0.419-0.179,0.679-0.478,1.11l-0.209,0.306
			c-4.137,5.878-24.373,21.379-25.219,21.799C985.623,80.457,984.709,80.711,983.708,80.711L983.708,80.711z"/>
		<path class="st11" d="M990.127,35.625c1.365,0,4.723,0.349,9.129,3.022c9.365,5.96,12.98,14.896,12.768,18.088
			c0,0.427-0.213,0.64-0.641,1.277c-4.041,5.744-24.256,21.279-25.107,21.703c-0.813,0.508-1.699,0.713-2.567,0.713
			c-2.769,0-5.365-2.082-4.878-3.054c7.658-14.47,12.768-27.661,13.193-36.386c0-2.342-0.641-4.47-2.555-5.32
			C989.414,35.668,989.646,35.625,990.127,35.625 M990.127,35.058c-0.238,0-0.42,0.01-0.544,0.021
			c-0.457,0.039-0.688,0.237-0.688,0.588v0.567l0.449,0.001c1.402,0.683,2.113,2.281,2.113,4.753
			c-0.399,8.147-4.939,20.647-13.129,36.121c-0.122,0.244-0.256,0.734,0.156,1.402c0.737,1.195,2.944,2.484,5.224,2.484
			c1.055,0,2.02-0.269,2.868-0.799l-0.001,0c1.376-0.835,21.182-16.044,25.272-21.857c0.082-0.124,0.151-0.223,0.213-0.313
			c0.308-0.443,0.529-0.764,0.529-1.291c0.223-3.303-3.473-12.484-13.03-18.566C994.934,35.36,991.423,35.058,990.127,35.058
			L990.127,35.058z"/>
	</g>
	
		<linearGradient id="SVGID_38_" gradientUnits="userSpaceOnUse" x1="-11007.7861" y1="6515.8232" x2="-11010.7861" y2="6788.7949" gradientTransform="matrix(-0.5113 0.7552 -0.8281 -0.5607 -182.663 12054.5449)">
		<stop  offset="0.0102" style="stop-color:#ED2024"/>
		<stop  offset="1" style="stop-color:#811517"/>
	</linearGradient>
	<path class="st0" d="M50.109,76.081l-8.351,12.333c0,0-14.941,1.979-15.552-8.669l6.403-7.449
		C32.609,72.296,37.425,81.758,50.109,76.081z"/>
	
		<linearGradient id="SVGID_39_" gradientUnits="userSpaceOnUse" x1="3819.6953" y1="8460.4746" x2="3816.6953" y2="8733.4766" gradientTransform="matrix(0.1617 -0.8975 0.9841 0.1774 -8945.9424 1978.2576)">
		<stop  offset="0.0102" style="stop-color:#ED2024"/>
		<stop  offset="1" style="stop-color:#811517"/>
	</linearGradient>
	<path class="st1" d="M2.278,62.006L4.92,47.349c0,0,12.86-7.86,17.73,1.629l-2.838,9.404C19.812,58.382,11.578,51.68,2.278,62.006z
		"/>
</g>
</svg>
